<svg height="24" inkscape:export-xdpi="96" inkscape:export-ydpi="96" style="fill:none;stroke:none;" version="1.1" viewBox="0 0 16 24" width="16" xmlns="http://www.w3.org/2000/svg" xmlns:cc="http://creativecommons.org/ns#" xmlns:dc="http://purl.org/dc/elements/1.1/" xmlns:inkscape="http://www.inkscape.org/namespaces/inkscape" xmlns:osb="http://www.openswatchbook.org/uri/2009/osb" xmlns:rdf="http://www.w3.org/1999/02/22-rdf-syntax-ns#" xmlns:sodipodi="http://sodipodi.sourceforge.net/DTD/sodipodi-0.dtd" xmlns:svg="http://www.w3.org/2000/svg" xmlns:xlink="http://www.w3.org/1999/xlink">
    <title>kobold.svg</title>
    <defs/>
    <sodipodi:namedview bordercolor="#666666" borderlayer="true" inkscape:document-units="px" inkscape:pagecheckerboard="true" pagecolor="#ffffff"/>
    <metadata>
        <rdf:RDF>
            <cc:Work>
                <dc:format>image/svg+xml</dc:format>
                <dc:type rdf:resource="http://purl.org/dc/dcmitype/MovingImage"/>
                <dc:title>kobold.svg</dc:title>
            </cc:Work>
        </rdf:RDF>
    </metadata>
    <g id="Composition_94ec60eacd684ca48ae6e7978ad6c0cf" inkscape:groupmode="layer" inkscape:label="kobold.svg">
        <g id="Layer_af92c66bbb74477fa43b07fb5b0a1d34" inkscape:groupmode="layer" inkscape:label="kobold.svg" opacity="1" transform="matrix(1, 0, 0, 1, 0, 0)">
            <g id="Layer_6df22c89d57542b295372ad9b4646a71" inkscape:groupmode="layer" inkscape:label="Layer 1" opacity="1" transform="matrix(1, 0, 0, 1, -109.802, -67.4688)">
                <g fill="#b6b6b6" fill-opacity="1" id="Fill_75f1d6a0b0d64812b817a7ec02e543d8" inkscape:label="bg" opacity="1" transform="matrix(1, 0, 0, 1, 0, 0)">
                    <path d="M 116.284,68.0702 C 116.194,68.0781 116.26,68.2397 116.555,68.602 117.669,69.9691 117.98,73.2611 117.984,73.3051 117.984,73.3051 117.807,73.35 117.807,73.35 117.745,71.4668 114.461,68.6216 114.074,68.6557 113.985,68.6636 114.05,68.8247 114.345,69.187 115.466,70.5633 115.775,73.8983 115.775,73.8983 115.775,73.8983 115.786,74.1841 115.786,74.1841 115.79,74.2386 115.997,77.3652 116.263,78.9342 116.282,79.0457 116.328,79.2505 116.342,79.2644 116.396,79.596 116.036,80.1484 115.146,83.6963 112.142,87.3933 111.911,84.4367 110.194,83.9177 109.695,85.7336 111.634,88.8385 111.634,88.8385 111.634,88.8385 113.985,88.6629 113.985,88.6629 112.44,91.7392 115.502,91.5242 115.502,91.5242 115.502,91.5242 124.265,92.356 123.294,90.4468 119.038,85.6399 120.894,79.6405 120.527,79.2144 119.992,78.6468 124.296,78.9306 125.127,78.1239 126.136,77.1433 125.606,77.3301 125.92,75.9245 126.568,73.0258 120.662,76.0238 120.728,75.0977 120.794,74.1717 120.442,73.0327 120.442,73.0327 120.239,71.4309 116.67,68.0361 116.284,68.0702 116.284,68.0702 116.284,68.0702 116.284,68.0702 Z" sodipodi:nodetypes="cccccccccccccccccccccc" style="stroke:none;">
                        <animate attributeName="d" begin="0.000000" calcMode="spline" dur="2.000000" keySplines="0.000000 0.000000 1.000000 1.000000; 0.000000 0.000000 1.000000 1.000000" keyTimes="0.000000; 0.500000; 1.000000" repeatCount="indefinite"/>
                    </path>
                </g>
                <g fill="#4a4a4a" fill-opacity="1" id="Stroke_17a9f8473f0747dab61cc8e894915b53" inkscape:label="Belly" opacity="1" stroke="#000000" stroke-opacity="1" stroke-width="0.4500010013580322" transform="matrix(1, 0, 0, 1, 0, 0)">
                    <path d="M 119.678,80.715 C 118.128,80.773 117.221,82.7508 117.219,85.3509 117.219,87.9936 118.516,90.1681 120.092,90.1681 120.897,90.1647 122.283,90.168 121.625,88.7698 120.038,86.1119 120.211,81.8496 120.261,80.5985 120.261,80.5985 119.678,80.715 119.678,80.715 Z" sodipodi:nodetypes="ccccc" style="stroke:none;">
                        <animate attributeName="d" begin="0.000000" calcMode="spline" dur="2.000000" keySplines="0.000000 0.000000 1.000000 1.000000; 0.000000 0.000000 1.000000 1.000000" keyTimes="0.000000; 0.500000; 1.000000" repeatCount="indefinite"/>
                    </path>
                    <path d="M 119.678,80.715 C 118.128,80.773 117.221,82.7508 117.219,85.3509 117.219,87.9936 118.516,90.1681 120.092,90.1681 120.897,90.1647 122.283,90.168 121.625,88.7698 120.038,86.1119 120.211,81.8496 120.261,80.5985 120.261,80.5985 119.678,80.715 119.678,80.715 Z" sodipodi:nodetypes="ccccc" style="fill:none;stroke-dasharray:none;stroke-linecap:butt;stroke-linejoin:miter;stroke-miterlimit:4;">
                        <animate attributeName="d" begin="0.000000" calcMode="spline" dur="2.000000" keySplines="0.000000 0.000000 1.000000 1.000000; 0.000000 0.000000 1.000000 1.000000" keyTimes="0.000000; 0.500000; 1.000000" repeatCount="indefinite"/>
                    </path>
                </g>
                <g fill="#4a4a4a" fill-opacity="1" id="Fill_d83f5fa944e3453e9e4ffef5d4d911b8" inkscape:label="Tail" opacity="1" transform="matrix(1, 0, 0, 1, 0, 0)">
                    <path d="M 110.148,83.8553 C 110.148,83.8553 110.951,87.8875 112.348,87.0761 113.745,86.2648 114.6,86.5442 114.6,86.5442 114.6,86.5442 114.5,88.8013 114.055,88.8013 113.611,88.8013 111.698,89.0559 111.004,88.3576 110.31,87.6593 110.148,83.8553 110.148,83.8553 110.148,83.8553 110.148,83.8553 110.148,83.8553 Z" sodipodi:nodetypes="cccccc" style="stroke:none;"/>
                </g>
                <g fill="#00000000" fill-opacity="1" id="Stroke_bff2fa4906e84cf0a8a01b4a308e8ca7" inkscape:label="outline" opacity="1" sodipodi:insensitive="true" stroke="#000000" stroke-opacity="1" stroke-width="0.4500010013580322" transform="matrix(1, 0, 0, 1, 0, 0)">
                    <path d="M 116.223,68.1233 C 116.133,68.1312 116.199,68.2928 116.494,68.655 117.608,70.0222 117.919,73.3142 117.923,73.3581 117.923,73.3581 117.746,73.4031 117.746,73.4031 117.684,71.5198 114.4,68.6747 114.013,68.7088 113.924,68.7167 113.989,68.8777 114.284,69.24 115.405,70.6163 115.714,73.9513 115.714,73.9513 115.714,73.9513 115.725,74.2371 115.725,74.2371 115.729,74.2917 115.936,77.4182 116.202,78.9872 116.221,79.0987 116.267,79.3036 116.281,79.3174 116.335,79.649 116.036,80.1484 115.146,83.6963 115.075,83.7428 114.237,85.1404 113.236,85.3935 111.591,85.8093 110.027,83.4919 110.027,83.4919 110.028,88.8441 112.171,88.9126 112.171,88.9126 112.171,88.9126 113.985,88.6629 113.985,88.6629 112.44,91.7392 115.502,91.5242 115.502,91.5242 115.502,91.5242 124.265,92.356 123.294,90.4468 118.353,85.0875 121.451,79.38 120.32,79.2384 119.785,78.6708 124.235,78.9837 125.066,78.1769 126.075,77.1963 125.545,77.3832 125.859,75.9776 126.507,73.0788 120.601,76.0768 120.667,75.1508 120.733,74.2247 120.381,73.0858 120.381,73.0858 120.178,71.484 116.609,68.0892 116.223,68.1233 116.223,68.1233 116.223,68.1233 116.223,68.1233 Z" sodipodi:nodetypes="ccccccccccccccccccccccc" style="stroke:none;">
                        <animate attributeName="d" begin="0.000000" calcMode="spline" dur="2.000000" keySplines="0.000000 0.000000 1.000000 1.000000; 0.000000 0.000000 1.000000 1.000000" keyTimes="0.000000; 0.500000; 1.000000" repeatCount="indefinite"/>
                    </path>
                    <path d="M 116.223,68.1233 C 116.133,68.1312 116.199,68.2928 116.494,68.655 117.608,70.0222 117.919,73.3142 117.923,73.3581 117.923,73.3581 117.746,73.4031 117.746,73.4031 117.684,71.5198 114.4,68.6747 114.013,68.7088 113.924,68.7167 113.989,68.8777 114.284,69.24 115.405,70.6163 115.714,73.9513 115.714,73.9513 115.714,73.9513 115.725,74.2371 115.725,74.2371 115.729,74.2917 115.936,77.4182 116.202,78.9872 116.221,79.0987 116.267,79.3036 116.281,79.3174 116.335,79.649 116.036,80.1484 115.146,83.6963 115.075,83.7428 114.237,85.1404 113.236,85.3935 111.591,85.8093 110.027,83.4919 110.027,83.4919 110.028,88.8441 112.171,88.9126 112.171,88.9126 112.171,88.9126 113.985,88.6629 113.985,88.6629 112.44,91.7392 115.502,91.5242 115.502,91.5242 115.502,91.5242 124.265,92.356 123.294,90.4468 118.353,85.0875 121.451,79.38 120.32,79.2384 119.785,78.6708 124.235,78.9837 125.066,78.1769 126.075,77.1963 125.545,77.3832 125.859,75.9776 126.507,73.0788 120.601,76.0768 120.667,75.1508 120.733,74.2247 120.381,73.0858 120.381,73.0858 120.178,71.484 116.609,68.0892 116.223,68.1233 116.223,68.1233 116.223,68.1233 116.223,68.1233 Z" sodipodi:nodetypes="ccccccccccccccccccccccc" style="fill:none;stroke-dasharray:none;stroke-linecap:butt;stroke-linejoin:miter;stroke-miterlimit:4;">
                        <animate attributeName="d" begin="0.000000" calcMode="spline" dur="2.000000" keySplines="0.000000 0.000000 1.000000 1.000000; 0.000000 0.000000 1.000000 1.000000" keyTimes="0.000000; 0.500000; 1.000000" repeatCount="indefinite"/>
                    </path>
                </g>
                <g id="Stroke_48ae24e4ac4f437b9063602c63e0195c" inkscape:label="path66" opacity="1" stroke="#000000" stroke-opacity="1" stroke-width="0.4500010013580322" transform="matrix(1, 0, 0, 1, 0, 0)">
                    <path d="M 125.387,76.8807 C 125.387,76.8807 123.96,76.5952 123.96,76.5952 123.96,76.5952 123.371,77.1841 123.371,77.1841 123.371,77.1841 121.862,76.7798 121.862,76.7798 121.862,76.7798 121.64,77.1662 121.64,77.1662" sodipodi:nodetypes="ccccc" style="fill:none;stroke-dasharray:none;stroke-linecap:butt;stroke-linejoin:miter;stroke-miterlimit:4;"/>
                </g>
                <g fill="#ffffff" fill-opacity="1" id="Stroke_665181d7bcf044bea5b8a04676cf76cd" inkscape:label="tooth" opacity="1" stroke="#000000" stroke-opacity="1" stroke-width="0.15000000596046448" transform="matrix(1, 0, 0, 1, 0, 0)">
                    <path d="M 121.849,76.9309 C 121.912,76.994 122.15,78.0543 122.15,78.0543 122.15,78.0543 122.432,77.0015 122.432,77.0015" sodipodi:nodetypes="ccc" style="stroke:none;"/>
                    <path d="M 121.849,76.9309 C 121.912,76.994 122.15,78.0543 122.15,78.0543 122.15,78.0543 122.432,77.0015 122.432,77.0015" sodipodi:nodetypes="ccc" style="fill:none;stroke-dasharray:none;stroke-linecap:butt;stroke-linejoin:miter;stroke-miterlimit:4;"/>
                </g>
                <g fill="#ffffff" fill-opacity="1" id="Stroke_d59b96be524248cebfb2ee128ea9d2a0" inkscape:label="eyes" opacity="1" stroke="#000000" stroke-opacity="1" stroke-width="0.4500010013580322" transform="matrix(1, 0, 0, 1, 0, 0)">
                    <path d="M 120.398,72.8045 C 119.876,72.8062 119.385,73.1022 119.076,73.6009 118.778,73.2983 118.398,73.1319 118.005,73.132 117.103,73.132 116.361,74.0108 116.361,75.0787 116.361,76.1466 117.103,77.0254 118.005,77.0254 118.528,77.0236 119.02,76.7268 119.328,76.2271 119.626,76.5301 120.006,76.6971 120.398,76.6978 121.3,76.6978 122.043,75.8191 122.043,74.7511 122.043,73.6832 121.3,72.8045 120.398,72.8045 119.496,72.8045 120.398,72.8045 120.398,72.8045 Z" sodipodi:nodetypes="czzzzzzzz" style="stroke:none;"/>
                    <path d="M 120.398,72.8045 C 119.876,72.8062 119.385,73.1022 119.076,73.6009 118.778,73.2983 118.398,73.1319 118.005,73.132 117.103,73.132 116.361,74.0108 116.361,75.0787 116.361,76.1466 117.103,77.0254 118.005,77.0254 118.528,77.0236 119.02,76.7268 119.328,76.2271 119.626,76.5301 120.006,76.6971 120.398,76.6978 121.3,76.6978 122.043,75.8191 122.043,74.7511 122.043,73.6832 121.3,72.8045 120.398,72.8045 119.496,72.8045 120.398,72.8045 120.398,72.8045 Z" sodipodi:nodetypes="czzzzzzzz" style="fill:none;stroke-dasharray:none;stroke-linecap:round;stroke-linejoin:round;"/>
                </g>
                <g fill="#000000" fill-opacity="1" id="Fill_81c599d2ab884768996465cf7ff74e52" inkscape:label="eye_right" opacity="1" transform="matrix(1.0019, 0, 0, 1, 0.104902, 0.413439)">
                    <ellipse cx="120.721" cy="74.2574" rx="0.317114" ry="0.673773" style="stroke:none;"/>
                </g>
                <g fill="#000000" fill-opacity="1" id="Fill_16c1b6e7e42e40c4b0b12656df20eb2e" inkscape:label="eye_l" opacity="1" transform="matrix(1, 0, 0, 1, 0.0370244, 0.259171)">
                    <ellipse cx="118.525" cy="74.6078" rx="0.329799" ry="0.700724" style="stroke:none;"/>
                </g>
            </g>
        </g>
    </g>
</svg>
