<?xml version="1.0" encoding="UTF-8" standalone="no"?>
<!-- Created with Inkscape (http://www.inkscape.org/) -->

<svg
   width="150mm"
   height="100mm"
   viewBox="0 0 150 100"
   version="1.1"
   id="svg1"
   xml:space="preserve"
   inkscape:version="1.4 (e7c3feb100, 2024-10-09)"
   sodipodi:docname="settings_icon.svg"
   xmlns:inkscape="http://www.inkscape.org/namespaces/inkscape"
   xmlns:sodipodi="http://sodipodi.sourceforge.net/DTD/sodipodi-0.dtd"
   xmlns="http://www.w3.org/2000/svg"
   xmlns:svg="http://www.w3.org/2000/svg"><sodipodi:namedview
     id="namedview1"
     pagecolor="#ffffff"
     bordercolor="#111111"
     borderopacity="1"
     inkscape:showpageshadow="0"
     inkscape:pageopacity="0"
     inkscape:pagecheckerboard="1"
     inkscape:deskcolor="#d1d1d1"
     inkscape:document-units="mm"
     inkscape:zoom="1.7923962"
     inkscape:cx="215.35417"
     inkscape:cy="178.253"
     inkscape:window-width="2560"
     inkscape:window-height="1440"
     inkscape:window-x="0"
     inkscape:window-y="0"
     inkscape:window-maximized="0"
     inkscape:current-layer="layer1" /><defs
     id="defs1"><inkscape:path-effect
       effect="powerstroke"
       message=""
       id="path-effect25"
       is_visible="true"
       lpeversion="1.3"
       scale_width="1"
       interpolator_type="CentripetalCatmullRom"
       interpolator_beta="0.75"
       start_linecap_type="round"
       end_linecap_type="round"
       offset_points="39.945471,0.36903578"
       linejoin_type="spiro"
       miter_limit="4"
       not_jump="true"
       sort_points="true" /><inkscape:path-effect
       effect="simplify"
       id="path-effect24"
       is_visible="true"
       lpeversion="1.3"
       threshold="0.012"
       steps="1"
       smooth_angles="0"
       helper_size="0"
       simplify_individual_paths="false"
       simplify_just_coalesce="false"
       step="1" /><inkscape:path-effect
       effect="powerstroke"
       message=""
       id="path-effect23"
       is_visible="true"
       lpeversion="1.3"
       scale_width="1"
       interpolator_type="CentripetalCatmullRom"
       interpolator_beta="0.75"
       start_linecap_type="round"
       end_linecap_type="round"
       offset_points="1.1769748,0.36903578"
       linejoin_type="spiro"
       miter_limit="4"
       not_jump="true"
       sort_points="true" /><inkscape:path-effect
       effect="simplify"
       id="path-effect22"
       is_visible="true"
       lpeversion="1.3"
       threshold="0.012"
       steps="1"
       smooth_angles="0"
       helper_size="0"
       simplify_individual_paths="false"
       simplify_just_coalesce="false"
       step="1" /><inkscape:path-effect
       effect="powerstroke"
       message=""
       id="path-effect21"
       is_visible="true"
       lpeversion="1.3"
       scale_width="1"
       interpolator_type="CentripetalCatmullRom"
       interpolator_beta="0.75"
       start_linecap_type="round"
       end_linecap_type="round"
       offset_points="60.154029,0.36903578"
       linejoin_type="spiro"
       miter_limit="4"
       not_jump="true"
       sort_points="true" /><inkscape:path-effect
       effect="simplify"
       id="path-effect20"
       is_visible="true"
       lpeversion="1.3"
       threshold="0.012"
       steps="1"
       smooth_angles="0"
       helper_size="0"
       simplify_individual_paths="false"
       simplify_just_coalesce="false"
       step="1" /><inkscape:path-effect
       effect="powerstroke"
       message=""
       id="path-effect19"
       is_visible="true"
       lpeversion="1.3"
       scale_width="1"
       interpolator_type="CentripetalCatmullRom"
       interpolator_beta="0.75"
       start_linecap_type="round"
       end_linecap_type="round"
       offset_points="34.153316,0.36903578"
       linejoin_type="spiro"
       miter_limit="4"
       not_jump="true"
       sort_points="true" /><inkscape:path-effect
       effect="simplify"
       id="path-effect18"
       is_visible="true"
       lpeversion="1.3"
       threshold="0.012"
       steps="1"
       smooth_angles="0"
       helper_size="0"
       simplify_individual_paths="false"
       simplify_just_coalesce="false"
       step="1" /><inkscape:path-effect
       effect="powerstroke"
       message=""
       id="path-effect17"
       is_visible="true"
       lpeversion="1.3"
       scale_width="1"
       interpolator_type="CentripetalCatmullRom"
       interpolator_beta="0.75"
       start_linecap_type="round"
       end_linecap_type="round"
       offset_points="84.037445,0.36903578"
       linejoin_type="spiro"
       miter_limit="4"
       not_jump="true"
       sort_points="true" /><inkscape:path-effect
       effect="simplify"
       id="path-effect16"
       is_visible="true"
       lpeversion="1.3"
       threshold="0.012"
       steps="1"
       smooth_angles="0"
       helper_size="0"
       simplify_individual_paths="false"
       simplify_just_coalesce="false"
       step="1" /><inkscape:path-effect
       effect="powerstroke"
       message=""
       id="path-effect15"
       is_visible="true"
       lpeversion="1.3"
       scale_width="1"
       interpolator_type="CentripetalCatmullRom"
       interpolator_beta="0.75"
       start_linecap_type="round"
       end_linecap_type="round"
       offset_points="38.676389,0.36903578"
       linejoin_type="spiro"
       miter_limit="4"
       not_jump="true"
       sort_points="true" /><inkscape:path-effect
       effect="simplify"
       id="path-effect14"
       is_visible="true"
       lpeversion="1.3"
       threshold="0.012"
       steps="1"
       smooth_angles="0"
       helper_size="0"
       simplify_individual_paths="false"
       simplify_just_coalesce="false"
       step="1" /><inkscape:path-effect
       effect="powerstroke"
       message=""
       id="path-effect13"
       is_visible="true"
       lpeversion="1.3"
       scale_width="1"
       interpolator_type="CentripetalCatmullRom"
       interpolator_beta="0.75"
       start_linecap_type="round"
       end_linecap_type="round"
       offset_points="78.721613,0.36903578"
       linejoin_type="spiro"
       miter_limit="4"
       not_jump="true"
       sort_points="true" /><inkscape:path-effect
       effect="simplify"
       id="path-effect12"
       is_visible="true"
       lpeversion="1.3"
       threshold="0.012"
       steps="1"
       smooth_angles="0"
       helper_size="0"
       simplify_individual_paths="false"
       simplify_just_coalesce="false"
       step="1" /><inkscape:path-effect
       effect="powerstroke"
       message=""
       id="path-effect11"
       is_visible="true"
       lpeversion="1.3"
       scale_width="1"
       interpolator_type="CentripetalCatmullRom"
       interpolator_beta="0.75"
       start_linecap_type="round"
       end_linecap_type="round"
       offset_points="0.68790151,0.36903578"
       linejoin_type="spiro"
       miter_limit="4"
       not_jump="true"
       sort_points="true" /><inkscape:path-effect
       effect="simplify"
       id="path-effect10"
       is_visible="true"
       lpeversion="1.3"
       threshold="0.012"
       steps="1"
       smooth_angles="0"
       helper_size="0"
       simplify_individual_paths="false"
       simplify_just_coalesce="false"
       step="1" /><inkscape:path-effect
       effect="fillet_chamfer"
       id="path-effect9"
       is_visible="true"
       lpeversion="1"
       nodesatellites_param="F,0,0,1,0,0,0,1 @ F,0,0,1,0,0,0,1 @ F,0,0,1,0,0,0,1"
       radius="0"
       unit="px"
       method="auto"
       mode="F"
       chamfer_steps="1"
       flexible="false"
       use_knot_distance="true"
       apply_no_radius="true"
       apply_with_radius="true"
       only_selected="false"
       hide_knots="false" /><inkscape:path-effect
       effect="powerstroke"
       message=""
       id="path-effect8"
       is_visible="true"
       lpeversion="1.3"
       scale_width="1"
       interpolator_type="CentripetalCatmullRom"
       interpolator_beta="0.75"
       start_linecap_type="round"
       end_linecap_type="round"
       offset_points="11.698009,0.52189541"
       linejoin_type="spiro"
       miter_limit="4"
       not_jump="true"
       sort_points="true" /><inkscape:path-effect
       effect="simplify"
       id="path-effect7"
       is_visible="true"
       lpeversion="1.3"
       threshold="0.012"
       steps="1"
       smooth_angles="0"
       helper_size="0"
       simplify_individual_paths="false"
       simplify_just_coalesce="false"
       step="1" /><inkscape:path-effect
       effect="powerstroke"
       message=""
       id="path-effect6"
       is_visible="true"
       lpeversion="1.3"
       scale_width="1"
       interpolator_type="CentripetalCatmullRom"
       interpolator_beta="0.75"
       start_linecap_type="round"
       end_linecap_type="round"
       offset_points="29.972765,0.52189541"
       linejoin_type="spiro"
       miter_limit="4"
       not_jump="true"
       sort_points="true" /><inkscape:path-effect
       effect="simplify"
       id="path-effect5"
       is_visible="true"
       lpeversion="1.3"
       threshold="0.012"
       steps="1"
       smooth_angles="0"
       helper_size="0"
       simplify_individual_paths="false"
       simplify_just_coalesce="false"
       step="1" /><inkscape:path-effect
       effect="powerstroke"
       message=""
       id="path-effect3"
       is_visible="true"
       lpeversion="1.3"
       scale_width="1"
       interpolator_type="CentripetalCatmullRom"
       interpolator_beta="0.75"
       start_linecap_type="round"
       end_linecap_type="round"
       offset_points="6.4813118,0.52189541"
       linejoin_type="spiro"
       miter_limit="4"
       not_jump="true"
       sort_points="true" /><inkscape:path-effect
       effect="simplify"
       id="path-effect2"
       is_visible="true"
       lpeversion="1.3"
       threshold="0.012"
       steps="1"
       smooth_angles="0"
       helper_size="0"
       simplify_individual_paths="false"
       simplify_just_coalesce="false"
       step="1" /></defs><g
     inkscape:label="Layer 1"
     inkscape:groupmode="layer"
     id="layer1"><path
       style="fill:#00d400;fill-opacity:1;stroke:#000000;stroke-width:0.499998;stroke-dasharray:none;stroke-opacity:1"
       d="m 128.33424,101.82802 -1.57589,-1.49314 -1.4668,-0.006 c -1.29013,-0.006 -2.63683,-0.1527 -3.36449,-0.367448 -0.19201,-0.05666 -0.22071,-0.01261 -0.15703,0.241178 0.0692,0.27593 -0.0874,0.42546 -1.40661,1.34309 -0.81649,0.56793 -1.59576,1.06244 -1.73173,1.09892 -0.14465,0.0388 -0.88923,-0.25117 -1.7948,-0.69899 -1.2694,-0.62774 -1.56122,-0.8261 -1.62333,-1.10343 -0.0416,-0.18596 -0.11465,-1.179247 -0.1622,-2.2073 l -0.0865,-1.869199 -1.53497,-1.563695 -1.53498,-1.563691 -2.05098,-0.09613 -2.05099,-0.09613 -0.79342,-1.641537 c -0.43639,-0.902844 -0.79343,-1.713084 -0.79343,-1.800541 0,-0.25197 2.22125,-3.149361 2.49091,-3.249129 0.21034,-0.07782 0.2265,-0.157544 0.11983,-0.591111 -0.0678,-0.275635 -0.16031,-1.328602 -0.20554,-2.339926 l -0.0822,-1.838772 -1.42414,-1.500731 c -0.78327,-0.825405 -1.42413,-1.582519 -1.42413,-1.682476 0,-0.382769 0.95971,-3.390714 1.12432,-3.52388 0.0952,-0.07702 0.9597,-0.27633 1.92107,-0.442909 0.96137,-0.166579 1.85075,-0.356499 1.9764,-0.42205 0.12565,-0.06555 0.31976,-0.295754 0.43134,-0.511556 0.11158,-0.215808 0.58788,-0.897039 1.05844,-1.513844 l 0.85556,-1.121461 -0.20252,-1.798625 c -0.11138,-0.989245 -0.18326,-1.960279 -0.15972,-2.157855 0.034,-0.285499 0.32255,-0.561805 1.40583,-1.346244 0.74967,-0.542858 1.48345,-0.98471 1.63063,-0.981893 0.14718,0.0028 1.1056,0.433331 2.12983,0.956697 l 1.86224,0.951573 0.65757,-0.223543 c 0.36166,-0.122948 1.0983,-0.321609 1.63698,-0.441469 l 0.97942,-0.217927 1.13948,-1.710778 1.13949,-1.710777 0.54859,0.07516 c 0.30173,0.04134 1.17729,0.114134 1.94571,0.161769 l 1.39712,0.08661 0.68544,1.684814 c 0.37699,0.926647 0.75291,1.772121 0.83539,1.87883 0.11606,0.150169 1.29928,0.71752 2.71077,1.299811 0.0361,0.0149 0.98882,-0.261807 2.11714,-0.614902 l 2.05147,-0.641992 0.50823,0.445405 c 0.27953,0.244972 0.91431,0.833535 1.41063,1.307917 l 0.90239,0.86251 -0.54681,1.923779 -0.54682,1.923779 0.66148,1.099214 c 0.36381,0.604569 0.78569,1.398134 0.93749,1.763475 l 0.27602,0.664261 1.93504,0.694219 1.93502,0.694225 0.2875,1.78275 c 0.15813,0.980512 0.2868,1.856907 0.28592,1.947536 -9.9e-4,0.09063 -0.72454,0.704071 -1.60817,1.363205 l -1.60657,1.198415 -0.22111,1.526296 c -0.1216,0.839463 -0.39049,2.055932 -0.59753,2.703261 l -0.37643,1.176964 0.82189,1.581194 c 0.45203,0.869655 0.82338,1.685052 0.82522,1.811988 0.002,0.126931 -0.45189,0.914381 -1.00827,1.749878 -0.97384,1.462393 -1.02653,1.516561 -1.41173,1.451393 -0.22008,-0.03723 -1.06487,-0.137857 -1.87733,-0.223616 l -1.47718,-0.155927 -0.42701,0.350761 c -0.23486,0.192924 -0.82676,0.651727 -1.31535,1.019575 -0.48858,0.367847 -0.91626,0.793907 -0.9504,0.946806 -0.0341,0.152898 -0.21106,1.102985 -0.39318,2.111306 -0.18212,1.00832 -0.37494,1.87064 -0.42851,1.91626 -0.14689,0.12512 -3.24768,1.17618 -3.45914,1.17253 -0.10119,-0.002 -0.89314,-0.67509 -1.75988,-1.49632 z m 2.4445,-9.245931 c 1.82016,-0.88123 2.66531,-3.028953 1.87028,-4.752789 -0.56956,-1.234945 -2.05769,-2.232797 -3.32986,-2.232797 -1.24329,0 -2.68436,0.92768 -3.29223,2.119363 -1.4889,2.918851 1.80558,6.292652 4.75181,4.866223 z m -10.04459,-2.662004 c 1.18626,-0.568693 1.99881,-1.72679 2.11564,-3.015322 0.18876,-2.082028 -1.53955,-3.935079 -3.67019,-3.935079 -2.14365,0 -3.98682,2.225326 -3.53088,4.262955 0.53165,2.375941 3.00678,3.683947 5.08543,2.687446 z m 12.46575,-7.993021 c 1.68224,-0.7364 2.5948,-2.574955 2.10849,-4.248009 -0.30377,-1.045094 -0.91525,-1.782084 -1.90279,-2.293368 -1.86817,-0.967213 -3.96649,-0.224401 -4.89178,1.731714 -0.63505,1.342536 -0.43718,2.671987 0.56759,3.813623 1.12183,1.274628 2.64215,1.642304 4.11849,0.99604 z m -9.94889,-2.711611 c 0.83513,-0.416212 1.6455,-1.310726 1.92159,-2.121115 1.01072,-2.966699 -2.16531,-5.818164 -4.95824,-4.451537 -2.48924,1.218029 -2.86001,4.500855 -0.69331,6.138664 0.78313,0.59196 1.23017,0.742683 2.25403,0.759953 0.61031,0.01028 0.95318,-0.06543 1.47593,-0.325965 z"
       id="path2-2-3" /><path
       style="fill:#aa0000;fill-opacity:1;stroke:#000000;stroke-width:0.499998;stroke-dasharray:none;stroke-opacity:1"
       d="m 130.80979,40.817159 -1.57589,-1.493141 -1.4668,-0.0064 c -1.29013,-0.0056 -2.63683,-0.152705 -3.36449,-0.36745 -0.19201,-0.05666 -0.22071,-0.01261 -0.15703,0.241174 0.0692,0.275933 -0.0874,0.425465 -1.40661,1.343097 -0.81649,0.567924 -1.59576,1.062439 -1.73173,1.09892 -0.14465,0.03882 -0.88923,-0.251172 -1.7948,-0.698995 -1.2694,-0.627736 -1.56122,-0.826095 -1.62333,-1.103427 -0.0416,-0.185959 -0.11465,-1.179248 -0.1622,-2.207301 l -0.0865,-1.869199 -1.53497,-1.563695 -1.53498,-1.563691 -2.05098,-0.09613 -2.05098,-0.09613 -0.79343,-1.641537 c -0.43638,-0.902844 -0.79342,-1.713084 -0.79342,-1.800541 0,-0.25197 2.22124,-3.149361 2.4909,-3.249129 0.21034,-0.07782 0.2265,-0.157544 0.11983,-0.591111 -0.0678,-0.275635 -0.16031,-1.328602 -0.20554,-2.339926 l -0.0822,-1.838772 -1.42413,-1.500731 c -0.78327,-0.825405 -1.42413,-1.582519 -1.42413,-1.682476 0,-0.382769 0.95971,-3.390714 1.12432,-3.52388 0.0952,-0.07702 0.95969,-0.27633 1.92106,-0.442909 0.96137,-0.166579 1.85075,-0.356499 1.9764,-0.42205 0.12565,-0.06555 0.31976,-0.295754 0.43134,-0.511556 0.11158,-0.215808 0.58788,-0.897039 1.05844,-1.513844 l 0.85556,-1.121461 -0.20252,-1.798625 c -0.11138,-0.989245 -0.18326,-1.960279 -0.15972,-2.157855 0.034,-0.285499 0.32255,-0.561805 1.40583,-1.346244 0.74967,-0.542858 1.48345,-0.98471 1.63063,-0.981893 0.14718,0.0028 1.1056,0.433331 2.12983,0.956697 l 1.86224,0.951573 0.65757,-0.223543 c 0.36166,-0.122948 1.0983,-0.321609 1.63698,-0.441469 l 0.97942,-0.217927 1.13948,-1.710778 1.13949,-1.710777 0.54859,0.07516 c 0.30173,0.04134 1.17729,0.114134 1.94571,0.161769 l 1.39712,0.08661 0.68544,1.684814 c 0.37699,0.926647 0.75291,1.772121 0.83539,1.87883 0.11606,0.150169 1.29928,0.71752 2.71077,1.299811 0.0361,0.0149 0.98882,-0.261807 2.11714,-0.614902 l 2.05147,-0.641992 0.50823,0.445405 c 0.27953,0.244972 0.91431,0.833535 1.41063,1.307917 l 0.90239,0.86251 -0.54681,1.923779 -0.54682,1.923779 0.66148,1.099214 c 0.36381,0.604569 0.78569,1.398134 0.93749,1.763475 l 0.27602,0.664261 1.93504,0.694219 1.93502,0.694225 0.2875,1.78275 c 0.15813,0.980512 0.2868,1.856907 0.28592,1.947536 -9.9e-4,0.09063 -0.72454,0.704071 -1.60817,1.363205 l -1.60657,1.198415 -0.22111,1.526296 c -0.1216,0.839463 -0.39049,2.055932 -0.59753,2.703261 l -0.37643,1.176964 0.82189,1.581194 c 0.45203,0.869655 0.82338,1.685052 0.82522,1.811988 0.002,0.126931 -0.45189,0.914381 -1.00827,1.749878 -0.97384,1.462393 -1.02653,1.516561 -1.41173,1.451393 -0.22008,-0.03723 -1.06487,-0.137857 -1.87733,-0.223616 l -1.47718,-0.155927 -0.42701,0.350761 c -0.23486,0.192924 -0.82676,0.651727 -1.31535,1.019575 -0.48858,0.367847 -0.91626,0.793907 -0.9504,0.946806 -0.0341,0.152898 -0.21106,1.102985 -0.39318,2.111306 -0.18212,1.00832 -0.37494,1.870638 -0.42851,1.916263 -0.14689,0.125119 -3.24768,1.17618 -3.45914,1.172527 -0.10119,-0.002 -0.89314,-0.675088 -1.75988,-1.496318 z m 2.4445,-9.245934 c 1.82016,-0.88123 2.66531,-3.028953 1.87028,-4.752789 -0.56956,-1.234945 -2.05769,-2.232797 -3.32986,-2.232797 -1.24329,0 -2.68436,0.92768 -3.29223,2.119363 -1.4889,2.918851 1.80558,6.292652 4.75181,4.866223 z M 123.2097,28.909221 c 1.18626,-0.568693 1.99881,-1.72679 2.11564,-3.015322 0.18876,-2.082028 -1.53955,-3.935079 -3.67019,-3.935079 -2.14365,0 -3.98682,2.225326 -3.53088,4.262955 0.53165,2.375941 3.00678,3.683947 5.08543,2.687446 z M 135.67545,20.9162 c 1.68224,-0.7364 2.5948,-2.574955 2.10849,-4.248009 -0.30377,-1.045094 -0.91525,-1.782084 -1.90279,-2.293368 -1.86817,-0.967213 -3.96649,-0.224401 -4.89178,1.731714 -0.63505,1.342536 -0.43718,2.671987 0.56759,3.813623 1.12183,1.274628 2.64215,1.642304 4.11849,0.99604 z m -9.94889,-2.711611 c 0.83513,-0.416212 1.6455,-1.310726 1.92159,-2.121115 1.01072,-2.966699 -2.16531,-5.818164 -4.95824,-4.451537 -2.48924,1.218029 -2.86001,4.500855 -0.69331,6.138664 0.78313,0.59196 1.23017,0.742683 2.25403,0.759953 0.61031,0.01028 0.95318,-0.06543 1.47593,-0.325965 z"
       id="path2-2-3-7" /><path
       style="fill:#00aad4;fill-opacity:1;stroke:#000000;stroke-width:0.499998;stroke-dasharray:none;stroke-opacity:1"
       d="m 105.07248,69.740256 -1.57589,-1.493141 -1.4668,-0.0064 c -1.29013,-0.0056 -2.636834,-0.152705 -3.364493,-0.36745 -0.19201,-0.05666 -0.22071,-0.01261 -0.15703,0.241174 0.0692,0.275933 -0.0874,0.425465 -1.406603,1.343097 -0.816489,0.567924 -1.595767,1.062439 -1.73173,1.09892 -0.144649,0.03882 -0.889233,-0.251172 -1.794805,-0.698995 -1.269396,-0.627736 -1.561216,-0.826095 -1.623333,-1.103427 -0.04164,-0.185959 -0.114645,-1.179248 -0.1622,-2.207301 l -0.08646,-1.869199 -1.534969,-1.563695 -1.534975,-1.563691 -2.050982,-0.09613 -2.050983,-0.09613 -0.793428,-1.641537 c -0.436385,-0.902844 -0.793424,-1.713084 -0.793424,-1.800541 0,-0.25197 2.221243,-3.149361 2.490901,-3.249129 0.21034,-0.07782 0.226501,-0.157544 0.119832,-0.591111 -0.06781,-0.275635 -0.160309,-1.328602 -0.205536,-2.339926 l -0.08223,-1.838772 -1.424136,-1.500731 c -0.783269,-0.825405 -1.424131,-1.582519 -1.424131,-1.682476 0,-0.382769 0.959708,-3.390714 1.12432,-3.52388 0.09521,-0.07702 0.959694,-0.27633 1.921065,-0.442909 0.961366,-0.166579 1.850748,-0.356499 1.976402,-0.42205 0.125649,-0.06555 0.319754,-0.295754 0.431336,-0.511556 0.111583,-0.215808 0.587884,-0.897039 1.058441,-1.513844 l 0.855566,-1.121461 -0.202523,-1.798625 c -0.111384,-0.989245 -0.183264,-1.960279 -0.159723,-2.157855 0.034,-0.285499 0.322549,-0.561805 1.405832,-1.346244 0.749671,-0.542858 1.483454,-0.98471 1.630629,-0.981893 0.147176,0.0028 1.105598,0.433331 2.129831,0.956697 l 1.862238,0.951573 0.65757,-0.223543 c 0.36166,-0.122948 1.098298,-0.321609 1.636978,-0.441469 l 0.979419,-0.217927 1.139484,-1.710778 1.13949,-1.710777 0.54859,0.07516 c 0.30173,0.04134 1.17729,0.114134 1.94571,0.161769 l 1.39712,0.08661 0.68544,1.684814 c 0.37699,0.926647 0.75291,1.772121 0.83539,1.87883 0.11606,0.150169 1.29928,0.71752 2.71077,1.299811 0.0361,0.0149 0.98882,-0.261807 2.11714,-0.614902 l 2.05147,-0.641992 0.50823,0.445405 c 0.27953,0.244972 0.91431,0.833535 1.41063,1.307917 l 0.90239,0.86251 -0.54681,1.923779 -0.54682,1.923779 0.66148,1.099214 c 0.36381,0.604569 0.78569,1.398134 0.93749,1.763475 l 0.27602,0.664261 1.93504,0.694219 1.93503,0.694225 0.2875,1.78275 c 0.15813,0.980512 0.2868,1.856907 0.28592,1.947536 -9.9e-4,0.09063 -0.72454,0.704071 -1.60817,1.363205 l -1.60658,1.198415 -0.22111,1.526296 c -0.1216,0.839463 -0.39049,2.055932 -0.59753,2.703261 l -0.37643,1.176964 0.82189,1.581194 c 0.45203,0.869655 0.82338,1.685052 0.82522,1.811988 0.002,0.126931 -0.45189,0.914381 -1.00827,1.749878 -0.97384,1.462393 -1.02653,1.516561 -1.41173,1.451393 -0.22008,-0.03723 -1.06487,-0.137857 -1.87733,-0.223616 l -1.47718,-0.155927 -0.42701,0.350761 c -0.23486,0.192924 -0.82676,0.651727 -1.31535,1.019575 -0.48858,0.367847 -0.91626,0.793907 -0.9504,0.946806 -0.0341,0.152898 -0.21106,1.102985 -0.39318,2.111306 -0.18212,1.00832 -0.37494,1.870638 -0.42851,1.916263 -0.14689,0.125119 -3.24768,1.17618 -3.45914,1.172527 -0.10119,-0.002 -0.89314,-0.675088 -1.75988,-1.496318 z m 2.4445,-9.245934 c 1.82016,-0.88123 2.66531,-3.028953 1.87028,-4.752789 -0.56956,-1.234945 -2.05769,-2.232797 -3.32986,-2.232797 -1.24329,0 -2.68436,0.92768 -3.29223,2.119363 -1.4889,2.918851 1.80558,6.292652 4.75181,4.866223 z M 97.472392,57.832318 c 1.186255,-0.568693 1.998804,-1.72679 2.115634,-3.015322 0.18876,-2.082028 -1.539549,-3.935079 -3.670184,-3.935079 -2.14365,0 -3.986818,2.225326 -3.530877,4.262955 0.531641,2.375941 3.006778,3.683947 5.085427,2.687446 z m 12.465748,-7.993021 c 1.68224,-0.7364 2.5948,-2.574955 2.10849,-4.248009 -0.30377,-1.045094 -0.91525,-1.782084 -1.90279,-2.293368 -1.86817,-0.967213 -3.96649,-0.224401 -4.89178,1.731714 -0.63505,1.342536 -0.43718,2.671987 0.56759,3.813623 1.12183,1.274628 2.64215,1.642304 4.11849,0.99604 z m -9.948894,-2.711611 c 0.835134,-0.416212 1.645504,-1.310726 1.921594,-2.121115 1.01072,-2.966699 -2.165314,-5.818164 -4.958238,-4.451537 -2.489243,1.218029 -2.860011,4.500855 -0.693311,6.138664 0.783125,0.59196 1.230171,0.742683 2.254026,0.759953 0.61031,0.01028 0.953179,-0.06543 1.475929,-0.325965 z"
       id="path2-2-3-2" /><path
       style="fill:#808080;stroke:#000000;stroke-width:0.5;stroke-linecap:round;stroke-linejoin:miter;stroke-dasharray:none;stroke-opacity:1"
       d="m -10.006153,39.347995 c 0,0 44.478004,44.549689 93.338025,25.276081 25.120768,-9.909288 -25.45917,51.413624 -91.4529294,28.632436 z"
       id="path9"
       sodipodi:nodetypes="cscc"
       inkscape:transform-center-x="-48.915977"
       inkscape:transform-center-y="-6.6373709" /><path
       d="m 16.164645,6.7648182 c -0.01278,0.1849187 -0.03828,0.5458731 -0.08134,1.080894 -0.01087,0.1350697 -0.02406,0.2962794 -0.04036,0.4908023 -0.03957,0.472006 -0.142961,1.6406588 -0.182527,2.1126685 -0.04717,0.551066 -0.09728,1.156661 -0.141199,1.769361 -0.03671,0.51218 -0.06839,1.019106 -0.09282,1.523782 -0.0247,0.510406 -0.04002,0.978365 -0.04753,1.416218 -0.0048,0.279248 -0.0056,0.499183 -0.0056,0.636188 a 0.36903578,0.36903578 90 0 0 0.738072,0 c 0,-0.134043 7.54e-4,-0.349601 0.0055,-0.623528 0.0074,-0.429613 0.02242,-0.889879 0.04677,-1.393201 0.02409,-0.497789 0.0554,-0.998885 0.09179,-1.506696 0.04356,-0.607678 0.09333,-1.209358 0.140398,-1.759176 0.08716,-1.0182565 0.09548,-1.0957129 0.182637,-2.1139688 0.01637,-0.1953478 0.02963,-0.3573693 0.04057,-0.493242 0.04333,-0.5384591 0.06904,-0.9022809 0.08196,-1.0892214 a 0.36903578,0.36903578 90 0 0 -0.736316,-0.050881 z"
       id="path-1"
       inkscape:path-effect="#path-effect10;#path-effect11"
       inkscape:original-d="M 16.532803,6.7902585 C 16.326808,9.771577 15.942346,12.812702 15.942346,15.794732"
       style="fill:#000000;fill-rule:nonzero;stroke:none;stroke-width:1px;stroke-linecap:butt;stroke-linejoin:miter;stroke-opacity:1" /><path
       d="m 22.662275,7.7264886 c 0.0014,0.00983 0.0028,0.020199 0.0043,0.031096 0.0012,0.00884 0.0026,0.01921 0.0041,0.030002 0.0012,0.00892 0.0025,0.019294 0.004,0.030016 0.0012,0.00898 0.0025,0.019359 0.0039,0.030031 0.0011,0.00903 0.0024,0.019411 0.0038,0.030046 0.0011,0.00907 0.0024,0.019455 0.0037,0.03006 0.0011,0.00911 0.0023,0.019492 0.0036,0.030075 0.0011,0.00914 0.0023,0.019525 0.0035,0.030089 0.001,0.00917 0.0022,0.019554 0.0034,0.030104 0.001,0.00919 0.0022,0.019581 0.0034,0.030118 9.98e-4,0.00921 0.0021,0.019606 0.0033,0.030132 9.74e-4,0.00923 0.0021,0.019628 0.0032,0.030146 9.5e-4,0.00925 0.002,0.01965 0.0031,0.03016 9.26e-4,0.00927 0.002,0.01967 0.003,0.030174 9.02e-4,0.00929 0.0019,0.01969 0.0029,0.030188 8.77e-4,0.0093 0.0019,0.019708 0.0029,0.030202 8.54e-4,0.00932 0.0018,0.019726 0.0028,0.030216 8.3e-4,0.00933 0.0018,0.019744 0.0027,0.03023 8.05e-4,0.00935 0.0017,0.019761 0.0026,0.030243 7.81e-4,0.00936 0.0017,0.019777 0.0025,0.030257 7.57e-4,0.00938 0.0016,0.019793 0.0024,0.030271 7.34e-4,0.00939 0.0015,0.019808 0.0024,0.030284 7.1e-4,0.0094 0.0015,0.019824 0.0023,0.030297 6.87e-4,0.00942 0.0014,0.019839 0.0022,0.030311 6.63e-4,0.00943 0.0014,0.019853 0.0021,0.030324 6.39e-4,0.00944 0.0013,0.019868 0.0021,0.030337 6.17e-4,0.00945 0.0013,0.019882 0.002,0.03035 5.94e-4,0.00947 0.0012,0.019896 0.0019,0.030363 5.7e-4,0.00948 0.0012,0.01991 0.0018,0.030376 5.48e-4,0.00949 0.0012,0.019924 0.0018,0.030389 5.26e-4,0.0095 0.0011,0.019937 0.0017,0.030402 5.02e-4,0.00951 0.0011,0.019951 0.0016,0.030414 4.81e-4,0.00952 0.001,0.019964 0.0015,0.030427 4.58e-4,0.00954 9.61e-4,0.019977 0.0015,0.030439 4.36e-4,0.00955 9.14e-4,0.01999 0.0014,0.030452 4.14e-4,0.00956 8.67e-4,0.020003 0.0013,0.030464 3.92e-4,0.00957 8.21e-4,0.020015 0.0013,0.030477 3.7e-4,0.00958 7.75e-4,0.020028 0.0012,0.030488 3.49e-4,0.00959 7.3e-4,0.020041 0.0011,0.030501 3.28e-4,0.0096 6.85e-4,0.020053 0.001,0.030513 3.06e-4,0.00961 6.4e-4,0.020066 9.74e-4,0.030525 2.85e-4,0.00962 5.95e-4,0.020078 9.06e-4,0.030537 2.63e-4,0.00963 5.51e-4,0.02009 8.38e-4,0.030548 2.43e-4,0.00965 5.07e-4,0.020103 7.72e-4,0.03056 2.22e-4,0.00966 4.63e-4,0.020115 7.05e-4,0.030571 2.01e-4,0.00967 4.21e-4,0.020127 6.4e-4,0.030583 1.81e-4,0.00968 3.78e-4,0.020139 5.74e-4,0.030594 1.61e-4,0.00969 3.36e-4,0.020151 5.1e-4,0.030606 1.41e-4,0.0097 2.94e-4,0.020163 4.47e-4,0.030617 1.2e-4,0.00971 2.51e-4,0.020175 3.82e-4,0.030628 1.01e-4,0.00972 2.11e-4,0.020187 3.2e-4,0.030639 8.2e-5,0.00973 1.7e-4,0.020198 2.58e-4,0.03065 6.2e-5,0.00974 1.29e-4,0.02021 1.96e-4,0.030661 4.2e-5,0.00975 8.9e-5,0.020222 1.35e-4,0.030671 2.3e-5,0.00976 4.9e-5,0.020234 7.4e-5,0.030682 4e-6,0.00977 9e-6,0.020246 1.4e-5,0.030693 -1.4e-5,0.00978 -3e-5,0.020258 -4.5e-5,0.030703 -3.3e-5,0.0098 -6.9e-5,0.02027 -1.04e-4,0.030713 -5.2e-5,0.00981 -1.07e-4,0.020282 -1.62e-4,0.030724 -7.1e-5,0.00982 -1.45e-4,0.020294 -2.2e-4,0.030734 -8.9e-5,0.00983 -1.83e-4,0.020306 -2.77e-4,0.030744 -1.07e-4,0.00984 -2.21e-4,0.020318 -3.34e-4,0.030754 -1.25e-4,0.00985 -2.58e-4,0.02033 -3.9e-4,0.030763 -1.43e-4,0.00986 -2.94e-4,0.020342 -4.45e-4,0.030773 -1.61e-4,0.00987 -3.31e-4,0.020354 -5e-4,0.030783 -1.79e-4,0.00989 -3.67e-4,0.020367 -5.55e-4,0.030793 -1.96e-4,0.0099 -4.02e-4,0.02038 -6.08e-4,0.030802 -2.13e-4,0.00991 -4.38e-4,0.020393 -6.61e-4,0.030811 -2.31e-4,0.00992 -4.73e-4,0.020406 -7.14e-4,0.030821 -2.48e-4,0.00994 -5.08e-4,0.02042 -7.67e-4,0.03083 -2.64e-4,0.00995 -5.41e-4,0.020433 -8.17e-4,0.030839 -2.81e-4,0.00996 -5.76e-4,0.020448 -8.68e-4,0.030848 -2.98e-4,0.00998 -6.1e-4,0.020463 -9.19e-4,0.030857 -3.14e-4,0.00999 -6.43e-4,0.020478 -9.69e-4,0.030866 -3.3e-4,0.010007 -6.75e-4,0.020494 -0.001,0.030874 -3.47e-4,0.01002 -7.08e-4,0.02051 -0.0011,0.03088 -3.63e-4,0.01004 -7.41e-4,0.02053 -0.0011,0.03089 -3.78e-4,0.01006 -7.72e-4,0.02055 -0.0012,0.0309 -2.78e-4,0.0071 -5.74e-4,0.01466 -8.66e-4,0.02215 -1.14e-4,0.0029 -2.29e-4,0.0058 -3.43e-4,0.0088 -4.02e-4,0.0099 -8.28e-4,0.0204 -0.0013,0.03092 -4.17e-4,0.0099 -8.58e-4,0.02041 -0.0013,0.03092 -4.32e-4,0.0099 -8.89e-4,0.02042 -0.0013,0.03093 -4.47e-4,0.0099 -9.18e-4,0.02043 -0.0014,0.03094 -4.61e-4,0.01 -9.47e-4,0.02044 -0.0014,0.03095 -4.76e-4,0.01 -9.77e-4,0.02046 -0.0015,0.03096 -0.0015,0.03069 -0.003,0.06166 -0.0047,0.09267 -0.0022,0.0413 -0.0044,0.08263 -0.0068,0.123998 -0.01786,0.310331 -0.0415,0.621149 -0.06834,0.933037 -0.03396,0.394654 -0.07289,0.789099 -0.111682,1.186509 -0.03138,0.321579 -0.06264,0.644654 -0.09063,0.968493 -0.02417,0.279638 -0.04594,0.560258 -0.06318,0.841753 -0.0032,0.05188 -0.0062,0.103733 -0.009,0.155566 -0.0017,0.03113 -0.0034,0.06222 -0.0049,0.09328 -0.0016,0.03112 -0.0031,0.0622 -0.0045,0.09323 -4.81e-4,0.01047 -9.48e-4,0.02065 -0.0014,0.0308 -4.78e-4,0.01074 -9.31e-4,0.02091 -0.0014,0.03106 -4.62e-4,0.01075 -8.99e-4,0.02091 -0.0013,0.03105 -4.46e-4,0.01075 -8.68e-4,0.02092 -0.0013,0.03105 -4.31e-4,0.01076 -8.37e-4,0.02092 -0.0012,0.03104 -4.14e-4,0.01077 -8.05e-4,0.02093 -0.0012,0.03103 -3.98e-4,0.01078 -7.72e-4,0.02093 -0.0011,0.03103 -3.81e-4,0.01079 -7.39e-4,0.02093 -0.0011,0.03102 -3.64e-4,0.01079 -7.06e-4,0.02094 -0.001,0.03102 -3.46e-4,0.0108 -6.71e-4,0.02094 -9.94e-4,0.03101 -3.29e-4,0.01081 -6.36e-4,0.02095 -9.42e-4,0.031 -3.11e-4,0.01082 -6.02e-4,0.02095 -8.9e-4,0.031 -2.93e-4,0.01083 -5.67e-4,0.02096 -8.38e-4,0.03099 -2.75e-4,0.01085 -5.31e-4,0.02097 -7.84e-4,0.03099 -2.57e-4,0.01086 -4.95e-4,0.02097 -7.31e-4,0.03098 -2.37e-4,0.01087 -4.58e-4,0.02098 -6.75e-4,0.03097 -2.19e-4,0.01089 -4.21e-4,0.021 -6.21e-4,0.03097 -1.99e-4,0.01091 -3.83e-4,0.02101 -5.65e-4,0.03096 -1.79e-4,0.01093 -3.45e-4,0.02102 -5.08e-4,0.03095 -1.6e-4,0.01095 -3.06e-4,0.02104 -4.5e-4,0.03095 -1.4e-4,0.01098 -2.68e-4,0.02107 -3.93e-4,0.03094 -1.2e-4,0.01101 -2.29e-4,0.0211 -3.35e-4,0.03093 -9.8e-5,0.01106 -1.88e-4,0.02113 -2.75e-4,0.03092 -7.8e-5,0.01111 -1.48e-4,0.02118 -2.15e-4,0.03092 -5.7e-5,0.01118 -1.07e-4,0.02125 -1.55e-4,0.03091 -3.5e-5,0.01129 -6.5e-5,0.02136 -9.4e-5,0.0309 -1.2e-5,0.01146 -2.2e-5,0.02153 -3.2e-5,0.03089 a 0.36903578,0.36903578 90 0 0 0.738072,7.44e-4 c 9e-6,-0.0094 1.9e-5,-0.01943 3e-5,-0.03016 2.7e-5,-0.0088 5.7e-5,-0.01887 8.9e-5,-0.02943 4.6e-5,-0.0089 9.6e-5,-0.01899 1.48e-4,-0.02946 6.3e-5,-0.009 1.33e-4,-0.01908 2.05e-4,-0.02948 8.2e-5,-0.0091 1.71e-4,-0.01915 2.63e-4,-0.02951 9.9e-5,-0.0091 2.08e-4,-0.01921 3.19e-4,-0.02953 1.17e-4,-0.0092 2.45e-4,-0.01926 3.76e-4,-0.02955 1.34e-4,-0.0092 2.81e-4,-0.0193 4.3e-4,-0.02958 1.53e-4,-0.0092 3.18e-4,-0.01934 4.86e-4,-0.0296 1.7e-4,-0.0093 3.54e-4,-0.01938 5.4e-4,-0.02962 1.87e-4,-0.0093 3.9e-4,-0.01941 5.95e-4,-0.02964 2.04e-4,-0.0093 4.24e-4,-0.01944 6.47e-4,-0.02967 2.21e-4,-0.0094 4.59e-4,-0.01947 7e-4,-0.02969 2.38e-4,-0.0094 4.94e-4,-0.0195 7.52e-4,-0.02971 2.55e-4,-0.0094 5.28e-4,-0.01952 8.04e-4,-0.02973 2.71e-4,-0.0094 5.62e-4,-0.01955 8.55e-4,-0.02976 2.87e-4,-0.0094 5.95e-4,-0.01957 9.05e-4,-0.02978 3.03e-4,-0.0095 6.28e-4,-0.0196 9.55e-4,-0.0298 3.19e-4,-0.0095 6.61e-4,-0.01962 0.001,-0.02982 3.35e-4,-0.0095 6.93e-4,-0.01965 0.0011,-0.02985 3.51e-4,-0.0095 7.25e-4,-0.01967 0.0011,-0.02987 3.67e-4,-0.0095 7.57e-4,-0.01969 0.0011,-0.02989 3.82e-4,-0.0096 7.88e-4,-0.01971 0.0012,-0.02991 3.97e-4,-0.0096 8.19e-4,-0.01973 0.0012,-0.02993 4.12e-4,-0.0096 8.49e-4,-0.01975 0.0013,-0.02995 4.27e-4,-0.0096 8.8e-4,-0.01977 0.0013,-0.02998 4.42e-4,-0.0096 9.1e-4,-0.0198 0.0014,-0.03 0.0014,-0.02971 0.0029,-0.05975 0.0044,-0.08986 0.0015,-0.03005 0.0031,-0.06015 0.0048,-0.09032 0.0028,-0.05023 0.0057,-0.100535 0.0088,-0.150933 0.01675,-0.273632 0.03801,-0.54783 0.06181,-0.823286 0.02761,-0.319317 0.0585,-0.638722 0.08988,-0.960357 0.03864,-0.395882 0.07805,-0.795116 0.112455,-1.194923 0.02724,-0.316578 0.05146,-0.634672 0.06983,-0.953921 0.0024,-0.04258 0.0048,-0.08516 0.007,-0.127747 0.0017,-0.03198 0.0033,-0.06394 0.0048,-0.09588 5.13e-4,-0.01075 0.001,-0.02124 0.0015,-0.03172 5.1e-4,-0.01102 9.96e-4,-0.02151 0.0015,-0.03198 4.96e-4,-0.01103 9.67e-4,-0.02152 0.0014,-0.03199 4.8e-4,-0.01104 9.36e-4,-0.02153 0.0014,-0.03199 4.65e-4,-0.01105 9.06e-4,-0.02154 0.0013,-0.032 4.49e-4,-0.01106 8.75e-4,-0.02155 0.0013,-0.032 1.36e-4,-0.0035 2.5e-4,-0.0064 3.64e-4,-0.0093 2.93e-4,-0.0075 5.89e-4,-0.01506 8.87e-4,-0.0227 4.11e-4,-0.01091 8.05e-4,-0.0214 0.0012,-0.03202 3.94e-4,-0.01092 7.72e-4,-0.02141 0.0012,-0.03202 3.78e-4,-0.01094 7.4e-4,-0.02143 0.0011,-0.03203 3.61e-4,-0.01096 7.07e-4,-0.02144 0.0011,-0.03203 3.45e-4,-0.010971 6.74e-4,-0.021458 0.001,-0.03204 3.27e-4,-0.010985 6.39e-4,-0.021471 9.54e-4,-0.032046 3.1e-4,-0.010998 6.05e-4,-0.021484 9.02e-4,-0.032051 2.92e-4,-0.011011 5.7e-4,-0.021496 8.5e-4,-0.032057 2.74e-4,-0.011023 5.34e-4,-0.021507 7.97e-4,-0.032062 2.55e-4,-0.011035 4.98e-4,-0.021518 7.42e-4,-0.032068 2.38e-4,-0.011046 4.63e-4,-0.021529 6.89e-4,-0.032073 2.19e-4,-0.011057 4.25e-4,-0.021539 6.33e-4,-0.032078 2e-4,-0.011067 3.88e-4,-0.021549 5.78e-4,-0.032083 1.8e-4,-0.011078 3.5e-4,-0.021558 5.21e-4,-0.032088 1.61e-4,-0.011088 3.13e-4,-0.021567 4.65e-4,-0.032093 1.41e-4,-0.011097 2.73e-4,-0.021576 4.06e-4,-0.032098 1.21e-4,-0.011107 2.35e-4,-0.021585 3.49e-4,-0.032103 10e-5,-0.011116 1.95e-4,-0.021593 2.89e-4,-0.032107 8e-5,-0.011126 1.55e-4,-0.021602 2.3e-4,-0.032112 5.9e-5,-0.011135 1.14e-4,-0.02161 1.7e-4,-0.032116 3.8e-5,-0.011144 7.3e-5,-0.021618 1.08e-4,-0.032121 1.7e-5,-0.011153 3.2e-5,-0.021626 4.8e-5,-0.032125 -5e-6,-0.011161 -10e-6,-0.021633 -1.5e-5,-0.032129 -2.7e-5,-0.01117 -5.3e-5,-0.021641 -7.8e-5,-0.032133 -4.9e-5,-0.011178 -9.5e-5,-0.021648 -1.42e-4,-0.032137 -7.1e-5,-0.011187 -1.38e-4,-0.021656 -2.05e-4,-0.032141 -9.4e-5,-0.011195 -1.82e-4,-0.021663 -2.7e-4,-0.032145 -1.17e-4,-0.011203 -2.27e-4,-0.02167 -3.36e-4,-0.032148 -1.4e-4,-0.011211 -2.71e-4,-0.021677 -4.02e-4,-0.032152 -1.63e-4,-0.01122 -3.16e-4,-0.021683 -4.69e-4,-0.032155 -1.86e-4,-0.011228 -3.61e-4,-0.02169 -5.36e-4,-0.032159 -2.1e-4,-0.011236 -4.07e-4,-0.021697 -6.04e-4,-0.032162 -2.35e-4,-0.011244 -4.54e-4,-0.021704 -6.73e-4,-0.032165 -2.59e-4,-0.011252 -5.01e-4,-0.02171 -7.42e-4,-0.032168 -2.84e-4,-0.011259 -5.48e-4,-0.021717 -8.13e-4,-0.032171 -3.08e-4,-0.011267 -5.95e-4,-0.021723 -8.83e-4,-0.032174 -3.33e-4,-0.011275 -6.44e-4,-0.021729 -9.54e-4,-0.032177 -3.59e-4,-0.011283 -6.93e-4,-0.021736 -0.001,-0.03218 -3.85e-4,-0.011291 -7.43e-4,-0.021742 -0.0011,-0.032182 -4.11e-4,-0.011299 -7.92e-4,-0.021748 -0.0012,-0.032185 -4.37e-4,-0.011306 -8.42e-4,-0.021754 -0.0012,-0.032187 -4.64e-4,-0.011314 -8.93e-4,-0.02176 -0.0013,-0.03219 -4.91e-4,-0.011322 -9.44e-4,-0.021766 -0.0014,-0.032192 -5.17e-4,-0.011329 -9.95e-4,-0.021772 -0.0015,-0.032194 -5.45e-4,-0.011337 -0.001,-0.021778 -0.0015,-0.032196 -5.72e-4,-0.011345 -0.0011,-0.021784 -0.0016,-0.032198 -6e-4,-0.011353 -0.0012,-0.02179 -0.0017,-0.032199 -6.29e-4,-0.011361 -0.0012,-0.021797 -0.0018,-0.032201 -6.57e-4,-0.011369 -0.0013,-0.021802 -0.0019,-0.032203 -6.85e-4,-0.011377 -0.0013,-0.021809 -0.0019,-0.032204 -7.14e-4,-0.011385 -0.0014,-0.021815 -0.002,-0.032205 -7.43e-4,-0.011393 -0.0014,-0.021821 -0.0021,-0.032207 -7.73e-4,-0.011401 -0.0015,-0.021827 -0.0022,-0.032208 -8.03e-4,-0.01141 -0.0015,-0.021834 -0.0023,-0.032209 -8.33e-4,-0.011418 -0.0016,-0.02184 -0.0024,-0.03221 -8.63e-4,-0.011427 -0.0017,-0.021847 -0.0024,-0.032211 -8.94e-4,-0.011436 -0.0017,-0.021854 -0.0025,-0.032211 -9.25e-4,-0.011445 -0.0018,-0.021861 -0.0026,-0.032212 -9.56e-4,-0.011454 -0.0018,-0.021868 -0.0027,-0.032212 -9.88e-4,-0.011464 -0.0019,-0.021876 -0.0028,-0.032212 -0.001,-0.011474 -0.0019,-0.021883 -0.0029,-0.032213 -0.0011,-0.011485 -0.002,-0.021892 -0.003,-0.032213 -0.0011,-0.011496 -0.0021,-0.021901 -0.003,-0.032213 -0.0011,-0.011507 -0.0021,-0.02191 -0.0031,-0.032213 -0.0012,-0.01152 -0.0022,-0.02192 -0.0032,-0.032212 -0.0012,-0.011533 -0.0023,-0.021931 -0.0033,-0.032212 -0.0012,-0.011547 -0.0023,-0.021943 -0.0034,-0.032211 -0.0013,-0.011563 -0.0024,-0.021956 -0.0035,-0.032211 -0.0013,-0.01158 -0.0024,-0.021971 -0.0036,-0.03221 -0.0013,-0.011599 -0.0025,-0.021987 -0.0037,-0.032209 -0.0014,-0.011621 -0.0026,-0.022007 -0.0038,-0.032208 -0.0014,-0.011646 -0.0026,-0.02203 -0.0039,-0.032207 -0.0014,-0.011675 -0.0027,-0.022057 -0.004,-0.032206 -0.0015,-0.01171 -0.0028,-0.02209 -0.0041,-0.032204 -0.0015,-0.011754 -0.0029,-0.022132 -0.0042,-0.032203 -0.0016,-0.011811 -0.0029,-0.022186 -0.0043,-0.032201 -0.0016,-0.011888 -0.003,-0.022261 -0.0044,-0.032199 -0.0017,-0.011999 -0.0031,-0.022371 -0.0044,-0.032197 a 0.36903578,0.36903578 90 0 0 -0.731116,0.1010886 z"
       id="path-1-0"
       inkscape:path-effect="#path-effect12;#path-effect13"
       inkscape:original-d="m 23.027833,7.6759443 c 0.370929,2.6531217 -0.295229,5.3985837 -0.295229,7.9711727"
       style="fill:#000000;fill-rule:nonzero;stroke:none;stroke-width:1px;stroke-linecap:butt;stroke-linejoin:miter;stroke-opacity:1" /><path
       style="fill:none;stroke:#000000;stroke-width:0.5;stroke-linecap:butt;stroke-linejoin:miter;stroke-opacity:1;stroke-dasharray:none"
       d="m -14.170974,-10.185388 c 0,0 2.657058,13.1376742 24.65159,10.62823093 C 32.475149,-2.0666004 33.065607,15.647117 33.065607,15.647117 c 0,0 13.285287,18.304175 -9.742546,16.532803 -23.02783255,-1.771372 -37.494035,-42.365308 -37.494035,-42.365308 z"
       id="path17" /><path
       style="fill:none;stroke:#000000;stroke-width:0.5;stroke-linecap:butt;stroke-linejoin:miter;stroke-opacity:1;stroke-dasharray:none"
       d="m 13.728131,21.55169 c 6.052187,10.333001 6.052187,-8.856859 6.052187,-8.856859 0,0 -1.328529,15.794732 3.690358,11.513917"
       id="path18" /><path
       d="m 11.031801,12.391343 c -0.105143,0.225634 -0.224192,0.479621 -0.346832,0.734771 -0.11974,0.249123 -0.250463,0.515219 -0.389462,0.7857 -0.05837,0.113589 -0.12037,0.232167 -0.185578,0.353933 -0.01214,0.02267 -0.02476,0.04614 -0.03783,0.07033 -0.01228,0.02273 -0.02499,0.04614 -0.03808,0.07015 -0.0041,0.0075 -0.0084,0.01544 -0.01287,0.02356 -0.004,0.0073 -0.0083,0.01523 -0.01278,0.02332 -0.004,0.0073 -0.00837,0.01523 -0.012809,0.0233 -0.00404,0.0073 -0.0084,0.01523 -0.012838,0.02328 -0.00405,0.0073 -0.00843,0.01523 -0.012867,0.02325 -0.00407,0.0073 -0.00845,0.01522 -0.012896,0.02323 -0.00408,0.0073 -0.00847,0.01521 -0.012925,0.0232 -0.00409,0.0073 -0.0085,0.0152 -0.012954,0.02318 -0.0041,0.0073 -0.00852,0.01519 -0.012984,0.02315 -0.00412,0.0073 -0.00854,0.01518 -0.013013,0.02313 -0.00413,0.0073 -0.00856,0.01517 -0.013043,0.0231 -0.00414,0.0073 -0.00859,0.01515 -0.013073,0.02308 -0.00415,0.0073 -0.00861,0.01514 -0.013103,0.02305 -0.00416,0.0073 -0.00863,0.01512 -0.013134,0.02302 -0.00417,0.0073 -0.00865,0.01511 -0.013164,0.02299 -0.00418,0.0073 -0.00867,0.01509 -0.013194,0.02296 -0.00419,0.0073 -0.00869,0.01507 -0.013225,0.02294 -0.0042,0.0073 -0.00871,0.01505 -0.013256,0.0229 -0.00421,0.0072 -0.00873,0.01504 -0.013287,0.02288 -0.00422,0.0072 -0.00876,0.01502 -0.013318,0.02284 -0.00423,0.0072 -0.00878,0.015 -0.01335,0.02281 -0.00424,0.0072 -0.0088,0.01498 -0.013381,0.02278 -0.00424,0.0072 -0.00882,0.01496 -0.013413,0.02275 -0.00425,0.0072 -0.00884,0.01494 -0.013445,0.02272 -0.00426,0.0072 -0.00886,0.01492 -0.013477,0.02269 -0.00427,0.0072 -0.00888,0.01489 -0.013509,0.02265 -0.00428,0.0072 -0.0089,0.01487 -0.013541,0.02262 -0.00429,0.0071 -0.00892,0.01485 -0.013573,0.02259 -0.0043,0.0071 -0.00895,0.01483 -0.013606,0.02255 -0.00569,0.0094 -0.00963,0.0159 -0.013639,0.02252 -0.00425,0.007 -0.00892,0.01467 -0.013671,0.02248 -0.00427,0.007 -0.00895,0.01466 -0.013704,0.02244 -0.00428,0.007 -0.00898,0.01464 -0.013738,0.02241 -0.00429,0.007 -0.009,0.01462 -0.013771,0.02237 -0.00431,0.007 -0.00903,0.0146 -0.013804,0.02233 -0.00432,0.007 -0.00905,0.01458 -0.013838,0.02229 -0.00433,0.0069 -0.00908,0.01456 -0.013872,0.02226 -0.00434,0.0069 -0.0091,0.01454 -0.013905,0.02222 -0.00435,0.0069 -0.00912,0.01451 -0.01394,0.02218 -0.00436,0.0069 -0.00915,0.01449 -0.013974,0.02214 -0.00437,0.0069 -0.00917,0.01447 -0.014008,0.0221 -0.00439,0.0069 -0.0092,0.01444 -0.014043,0.02206 -0.0044,0.0069 -0.00922,0.01442 -0.014077,0.02202 -0.00441,0.0069 -0.00924,0.01439 -0.014112,0.02197 -0.00442,0.0068 -0.00927,0.01436 -0.014147,0.02193 -0.00443,0.0068 -0.00929,0.01434 -0.014182,0.02189 -0.00444,0.0068 -0.00931,0.01431 -0.014217,0.02185 -0.00445,0.0068 -0.00934,0.01428 -0.014252,0.0218 -0.00446,0.0068 -0.00936,0.01425 -0.014288,0.02176 -0.00447,0.0068 -0.00938,0.01422 -0.014323,0.02171 -0.00448,0.0068 -0.0094,0.01419 -0.014359,0.02167 -0.00449,0.0067 -0.00943,0.01416 -0.014395,0.02162 -0.0045,0.0067 -0.00945,0.01413 -0.014431,0.02158 -0.00451,0.0067 -0.00948,0.0141 -0.014467,0.02153 -0.00451,0.0067 -0.0095,0.01407 -0.014503,0.02148 -0.00452,0.0067 -0.00952,0.01404 -0.01454,0.02144 -0.00453,0.0067 -0.00955,0.01401 -0.014576,0.02139 -0.00454,0.0066 -0.00957,0.01398 -0.014613,0.02134 -0.00455,0.0066 -0.00959,0.01394 -0.01465,0.02129 -0.00456,0.0066 -0.00962,0.01391 -0.014687,0.02124 -0.00457,0.0066 -0.00964,0.01388 -0.014724,0.0212 -0.00458,0.0066 -0.00966,0.01384 -0.014761,0.02114 -0.00459,0.0065 -0.00969,0.01381 -0.014798,0.02109 -0.0046,0.0065 -0.00971,0.01377 -0.014836,0.02104 -0.00461,0.0065 -0.00973,0.01374 -0.014874,0.02099 -0.00462,0.0065 -0.00976,0.0137 -0.014911,0.02094 -0.00463,0.0065 -0.00978,0.01367 -0.014949,0.02089 -0.00464,0.0064 -0.00981,0.01363 -0.014987,0.02083 -0.00465,0.0064 -0.00983,0.0136 -0.015026,0.02078 -0.00466,0.0064 -0.00985,0.01356 -0.015064,0.02073 -0.00467,0.0064 -0.00988,0.01352 -0.015102,0.02068 -0.00468,0.0064 -0.0099,0.01349 -0.015141,0.02062 -0.00469,0.0063 -0.00993,0.01345 -0.015179,0.02056 -0.0047,0.0063 -0.00995,0.01341 -0.015219,0.02051 -0.0047,0.0063 -0.00998,0.01337 -0.015257,0.02045 -0.00471,0.0063 -0.010001,0.01334 -0.015296,0.0204 -0.00472,0.0063 -0.010026,0.0133 -0.015336,0.02034 -0.00473,0.0062 -0.01005,0.01326 -0.015375,0.02028 -0.00474,0.0062 -0.010075,0.01322 -0.015415,0.02022 -0.00475,0.0062 -0.010099,0.01318 -0.015454,0.02017 -0.00476,0.0062 -0.010124,0.01314 -0.015494,0.02011 -0.00477,0.0062 -0.010149,0.0131 -0.015534,0.02005 -0.00478,0.0061 -0.010174,0.01306 -0.015574,0.01999 -0.00479,0.0061 -0.010199,0.01302 -0.015614,0.01993 -0.0048,0.0061 -0.010224,0.01298 -0.015654,0.01987 -0.00481,0.0061 -0.010249,0.01293 -0.015694,0.01981 -0.00482,0.006 -0.010274,0.01289 -0.015735,0.01975 -0.00483,0.006 -0.010299,0.01285 -0.015775,0.01969 -0.00484,0.006 -0.010325,0.01281 -0.015816,0.01962 -0.00485,0.006 -0.01035,0.01277 -0.015857,0.01956 -0.00486,0.006 -0.010375,0.01272 -0.015898,0.0195 -0.00486,0.0059 -0.010401,0.01268 -0.015939,0.01943 -0.00487,0.0059 -0.010426,0.01264 -0.01598,0.01937 -0.00488,0.0059 -0.010452,0.01259 -0.016022,0.01931 -0.00489,0.0059 -0.010478,0.01255 -0.016063,0.01924 -0.0049,0.0058 -0.010503,0.0125 -0.016105,0.01918 -0.00491,0.0058 -0.010529,0.01246 -0.016147,0.01911 -0.00492,0.0058 -0.010555,0.01242 -0.016189,0.01904 -0.00493,0.0058 -0.010581,0.01237 -0.016231,0.01898 -0.00494,0.0057 -0.010607,0.01233 -0.016273,0.01891 -0.00495,0.0057 -0.010633,0.01228 -0.016315,0.01884 -0.00496,0.0057 -0.010659,0.01223 -0.016357,0.01877 -0.00497,0.0057 -0.010685,0.01219 -0.0164,0.01871 -0.00498,0.0056 -0.010712,0.01214 -0.016443,0.01864 -0.00499,0.0056 -0.010738,0.01209 -0.016485,0.01857 -0.005,0.0056 -0.010764,0.01205 -0.016528,0.0185 -0.00501,0.0056 -0.010791,0.012 -0.016571,0.01843 -0.00502,0.0055 -0.010817,0.01195 -0.016614,0.01836 -0.00503,0.0055 -0.010844,0.0119 -0.016658,0.01829 -0.00503,0.0055 -0.01087,0.01186 -0.016701,0.01822 -0.00504,0.0055 -0.010897,0.01181 -0.016744,0.01815 -0.00505,0.0054 -0.010924,0.01176 -0.016788,0.01807 -0.00506,0.0054 -0.010951,0.01171 -0.016832,0.018 -0.00507,0.0054 -0.010978,0.01166 -0.016875,0.01793 -0.00508,0.0054 -0.011005,0.01161 -0.016919,0.01785 -0.00509,0.0053 -0.011032,0.01156 -0.016964,0.01778 -0.0051,0.0053 -0.011059,0.01151 -0.017008,0.01771 -0.00511,0.0053 -0.011086,0.01146 -0.017052,0.01763 -0.00512,0.0053 -0.011114,0.01141 -0.017097,0.01756 -0.00513,0.0052 -0.011141,0.01136 -0.017141,0.01748 -0.00514,0.0052 -0.011168,0.01131 -0.017186,0.01741 -0.00515,0.0052 -0.011196,0.01126 -0.017231,0.01733 -0.00516,0.0052 -0.011224,0.01121 -0.017276,0.01725 -0.00517,0.0051 -0.011251,0.01116 -0.017321,0.01718 -0.00518,0.0051 -0.011279,0.01111 -0.017366,0.0171 -0.00519,0.0051 -0.011307,0.01105 -0.017412,0.01702 -0.0052,0.005 -0.011335,0.011 -0.017457,0.01694 -0.00521,0.005 -0.011363,0.01095 -0.017503,0.01686 -0.00522,0.005 -0.011391,0.01089 -0.017548,0.01678 -0.00523,0.005 -0.01142,0.01084 -0.017594,0.01671 -0.00524,0.0049 -0.011448,0.01079 -0.017641,0.01663 -0.00525,0.0049 -0.011476,0.01074 -0.017687,0.01655 -0.00526,0.0049 -0.011505,0.01068 -0.017733,0.01647 -0.00527,0.0049 -0.011534,0.01063 -0.017779,0.01638 -0.00528,0.0048 -0.011563,0.01057 -0.017826,0.0163 -0.00529,0.0048 -0.011591,0.01052 -0.017873,0.01622 -0.0053,0.0048 -0.011621,0.01046 -0.017919,0.01614 -0.00531,0.0047 -0.011649,0.01041 -0.017966,0.01606 -0.00532,0.0047 -0.011679,0.01036 -0.018014,0.01597 -0.00533,0.0047 -0.011708,0.0103 -0.018061,0.01589 -0.00534,0.0047 -0.011738,0.01024 -0.018108,0.01581 -0.00535,0.0046 -0.011768,0.01019 -0.018156,0.01572 -0.00536,0.0046 -0.011798,0.01013 -0.018204,0.01564 -0.00537,0.0046 -0.011828,0.01008 -0.018251,0.01555 -0.00538,0.0045 -0.011858,0.01002 -0.018299,0.01547 -0.00539,0.0045 -0.011888,0.01 -0.018347,0.01538 -0.0054,0.0045 -0.011919,0.0099 -0.018396,0.0153 -0.00542,0.0045 -0.01195,0.0099 -0.018444,0.01521 -0.00543,0.0044 -0.011981,0.0098 -0.018493,0.01512 -0.00544,0.0044 -0.012012,0.0097 -0.018541,0.01504 -0.00545,0.0044 -0.012043,0.0097 -0.01859,0.01495 -0.00546,0.0044 -0.012075,0.0096 -0.018639,0.01486 -0.00548,0.0043 -0.012107,0.0096 -0.018689,0.01477 -0.00549,0.0043 -0.01214,0.0095 -0.018738,0.01469 -0.0055,0.0043 -0.012173,0.0095 -0.018788,0.0146 -0.00551,0.0042 -0.012206,0.0094 -0.018837,0.01451 -0.00553,0.0042 -0.012239,0.0093 -0.018887,0.01442 -0.00554,0.0042 -0.012274,0.0093 -0.018937,0.01433 -0.00556,0.0042 -0.012308,0.0092 -0.018987,0.01424 -0.00557,0.0041 -0.012343,0.0092 -0.019037,0.01415 -0.00559,0.0041 -0.01238,0.0091 -0.019088,0.01406 -0.0056,0.0041 -0.012417,0.0091 -0.019139,0.01397 -0.00562,0.0041 -0.012455,0.009 -0.01919,0.01387 -0.00564,0.004 -0.012494,0.0089 -0.019241,0.01378 -0.00566,0.004 -0.012535,0.0089 -0.019292,0.01369 -0.00568,0.004 -0.012577,0.0088 -0.019343,0.0136 -0.00571,0.004 -0.012622,0.0088 -0.019395,0.0135 -0.00573,0.004 -0.012671,0.0087 -0.019447,0.01341 -0.00576,0.0039 -0.012723,0.0087 -0.019499,0.01332 -0.0058,0.0039 -0.012782,0.0086 -0.019551,0.01322 -0.00585,0.0039 -0.012849,0.0086 -0.019603,0.01313 a 0.36903578,0.36903578 90 0 0 0.4108094,0.613176 c 0.00675,-0.0045 0.013756,-0.0092 0.020997,-0.01407 0.00816,-0.0055 0.015143,-0.01024 0.022328,-0.0151 0.00816,-0.0056 0.015118,-0.01032 0.022255,-0.0152 0.00815,-0.0056 0.015087,-0.0104 0.022182,-0.0153 0.00814,-0.0057 0.015052,-0.01048 0.02211,-0.0154 0.00812,-0.0057 0.015014,-0.01055 0.022037,-0.01549 0.0081,-0.0057 0.014974,-0.01063 0.021965,-0.01559 0.00808,-0.0058 0.014933,-0.0107 0.021893,-0.01568 0.00806,-0.0058 0.01489,-0.01076 0.021821,-0.01578 0.00803,-0.0059 0.014846,-0.01083 0.021749,-0.01587 0.00801,-0.0059 0.014802,-0.0109 0.021678,-0.01596 0.00798,-0.0059 0.014757,-0.01097 0.021606,-0.01606 0.00796,-0.006 0.014711,-0.01103 0.021535,-0.01615 0.00793,-0.006 0.014665,-0.0111 0.021464,-0.01624 0.00791,-0.006 0.014618,-0.01116 0.021394,-0.01633 0.00788,-0.0061 0.014572,-0.01122 0.021323,-0.01642 0.00785,-0.0061 0.014525,-0.01128 0.021253,-0.01651 0.00783,-0.0061 0.014478,-0.01135 0.021182,-0.0166 0.0078,-0.0062 0.014431,-0.01141 0.021113,-0.01669 0.00777,-0.0062 0.014383,-0.01147 0.021043,-0.01678 0.00774,-0.0062 0.014336,-0.01153 0.020973,-0.01687 0.00772,-0.0063 0.014289,-0.01159 0.020904,-0.01695 0.00769,-0.0063 0.014242,-0.01165 0.020835,-0.01704 0.00766,-0.0063 0.014194,-0.01171 0.020766,-0.01713 0.00763,-0.0063 0.014147,-0.01176 0.020698,-0.01721 0.00761,-0.0064 0.0141,-0.01182 0.020629,-0.0173 0.00758,-0.0064 0.014053,-0.01188 0.020561,-0.01738 0.00755,-0.0064 0.014006,-0.01193 0.020493,-0.01746 0.00752,-0.0065 0.013959,-0.01199 0.020425,-0.01755 0.00749,-0.0065 0.013911,-0.01205 0.020357,-0.01763 0.00747,-0.0065 0.013865,-0.0121 0.02029,-0.01771 0.00744,-0.0065 0.013818,-0.01216 0.020223,-0.01779 0.00741,-0.0066 0.013771,-0.01221 0.020156,-0.01787 0.00738,-0.0066 0.013724,-0.01226 0.02009,-0.01795 0.00736,-0.0066 0.013678,-0.01232 0.020023,-0.01804 0.00733,-0.0066 0.013632,-0.01237 0.019957,-0.01811 0.0073,-0.0067 0.013586,-0.01242 0.019891,-0.01819 0.00727,-0.0067 0.01354,-0.01248 0.019825,-0.01827 0.00725,-0.0067 0.013494,-0.01253 0.01976,-0.01835 0.00722,-0.0068 0.013448,-0.01258 0.019695,-0.01843 0.00719,-0.0068 0.013402,-0.01263 0.01963,-0.0185 0.00716,-0.0068 0.013357,-0.01268 0.019565,-0.01858 0.00714,-0.0068 0.013311,-0.01273 0.019501,-0.01865 0.00711,-0.0069 0.013266,-0.01278 0.019436,-0.01873 0.00708,-0.0069 0.013221,-0.01283 0.019372,-0.0188 0.00706,-0.0069 0.013176,-0.01288 0.019308,-0.01888 0.00703,-0.0069 0.013132,-0.01293 0.019245,-0.01895 0.007,-0.0069 0.013087,-0.01298 0.019182,-0.01902 0.00698,-0.007 0.013042,-0.01303 0.019118,-0.01909 0.00695,-0.007 0.012998,-0.01307 0.019056,-0.01916 0.00693,-0.007 0.012954,-0.01312 0.018993,-0.01924 0.0069,-0.007 0.01291,-0.01317 0.018931,-0.01931 0.00687,-0.0071 0.012866,-0.01321 0.018869,-0.01938 0.00685,-0.0071 0.012823,-0.01326 0.018807,-0.01945 0.00682,-0.0071 0.012779,-0.0133 0.018745,-0.01952 0.0068,-0.0071 0.012736,-0.01335 0.018684,-0.01958 0.00677,-0.0071 0.012693,-0.01339 0.018622,-0.01965 0.00675,-0.0072 0.01265,-0.01344 0.018562,-0.01972 0.00672,-0.0072 0.012607,-0.01348 0.018501,-0.01979 0.00669,-0.0072 0.012565,-0.01353 0.018441,-0.01985 0.00667,-0.0072 0.012522,-0.01357 0.01838,-0.01992 0.00664,-0.0072 0.01248,-0.01361 0.018321,-0.01998 0.00662,-0.0073 0.012438,-0.01365 0.018261,-0.02005 0.00659,-0.0073 0.012396,-0.0137 0.018201,-0.02011 0.00657,-0.0073 0.012355,-0.01374 0.018142,-0.02018 0.00655,-0.0073 0.012313,-0.01378 0.018083,-0.02024 0.00652,-0.0073 0.012271,-0.01382 0.018025,-0.0203 0.0065,-0.0074 0.01223,-0.01386 0.017966,-0.02037 0.00647,-0.0074 0.012189,-0.0139 0.017908,-0.02043 0.00645,-0.0074 0.012149,-0.01394 0.01785,-0.02049 0.00642,-0.0074 0.012108,-0.01398 0.017792,-0.02055 0.0064,-0.0074 0.012068,-0.01402 0.017735,-0.02061 0.00638,-0.0075 0.012027,-0.01406 0.017678,-0.02067 0.00635,-0.0075 0.011987,-0.0141 0.017621,-0.02073 0.00633,-0.0075 0.011947,-0.01414 0.017564,-0.02079 0.00631,-0.0075 0.011908,-0.01418 0.017508,-0.02085 0.00628,-0.0075 0.011868,-0.01422 0.017451,-0.0209 0.00626,-0.0075 0.011829,-0.01425 0.017396,-0.02096 0.00624,-0.0076 0.01179,-0.01429 0.01734,-0.02102 0.00621,-0.0076 0.011751,-0.01433 0.017284,-0.02107 0.00619,-0.0076 0.011712,-0.01436 0.017229,-0.02113 0.00617,-0.0076 0.011673,-0.0144 0.017174,-0.02118 0.00615,-0.0076 0.011635,-0.01444 0.017119,-0.02124 0.00612,-0.0076 0.011597,-0.01447 0.017065,-0.02129 0.0061,-0.0077 0.011559,-0.0145 0.017011,-0.02135 0.00608,-0.0077 0.01152,-0.01454 0.016956,-0.0214 0.00606,-0.0077 0.011483,-0.01457 0.016903,-0.02145 0.00604,-0.0077 0.011446,-0.01461 0.016849,-0.02151 0.00601,-0.0077 0.011408,-0.01464 0.016796,-0.02156 0.00599,-0.0077 0.011371,-0.01468 0.016743,-0.02161 0.00597,-0.0077 0.011334,-0.01471 0.01669,-0.02166 0.00595,-0.0078 0.011297,-0.01474 0.016637,-0.02171 0.00593,-0.0078 0.011261,-0.01478 0.016586,-0.02176 0.00591,-0.0078 0.011224,-0.01481 0.016533,-0.02181 0.00589,-0.0078 0.011188,-0.01484 0.016482,-0.02186 0.00587,-0.0078 0.011152,-0.01487 0.01643,-0.02191 0.00584,-0.0078 0.011116,-0.0149 0.016379,-0.02196 0.00582,-0.0078 0.011081,-0.01493 0.016327,-0.022 0.0058,-0.0079 0.011045,-0.01496 0.016276,-0.02205 0.00578,-0.0079 0.01101,-0.01499 0.016226,-0.0221 0.00576,-0.0079 0.010975,-0.01502 0.016176,-0.02214 0.00574,-0.0079 0.01094,-0.01505 0.016125,-0.02219 0.00572,-0.0079 0.010905,-0.01508 0.016076,-0.02223 0.0057,-0.0079 0.010871,-0.01511 0.016026,-0.02228 0.00568,-0.0079 0.010836,-0.01514 0.015976,-0.02232 0.00566,-0.008 0.010802,-0.01517 0.015927,-0.02237 0.00564,-0.008 0.010769,-0.0152 0.015878,-0.02241 0.00562,-0.008 0.010735,-0.01522 0.01583,-0.02245 0.00561,-0.008 0.010701,-0.01525 0.015781,-0.02249 0.00559,-0.008 0.010668,-0.01528 0.015733,-0.02254 0.00557,-0.008 0.010635,-0.01531 0.015685,-0.02258 0.00555,-0.008 0.010602,-0.01534 0.015637,-0.02262 0.00553,-0.008 0.010569,-0.01536 0.01559,-0.02266 0.00551,-0.008 0.010537,-0.01539 0.015542,-0.0227 0.00549,-0.0081 0.010504,-0.01542 0.015495,-0.02274 0.00547,-0.0081 0.010472,-0.01544 0.015449,-0.02278 0.00546,-0.0081 0.01044,-0.01547 0.015402,-0.02282 0.00544,-0.0081 0.010409,-0.01549 0.015356,-0.02285 0.00542,-0.0081 0.010377,-0.01552 0.015309,-0.02289 0.0054,-0.0081 0.010346,-0.01554 0.015264,-0.02293 0.00539,-0.0081 0.010315,-0.01557 0.015218,-0.02297 0.00537,-0.0081 0.010284,-0.01559 0.015173,-0.023 0.00535,-0.0081 0.010253,-0.01561 0.015127,-0.02304 0.0053,-0.0082 0.01022,-0.01564 0.01508,-0.02307 0.0053,-0.0082 0.01019,-0.01566 0.01504,-0.02311 0.0053,-0.0082 0.01016,-0.01569 0.01499,-0.02314 0.0053,-0.0082 0.01013,-0.01571 0.01495,-0.02318 0.0053,-0.0082 0.0101,-0.01573 0.0149,-0.02321 0.0053,-0.0082 0.01008,-0.01576 0.01486,-0.02324 0.0052,-0.0082 0.01005,-0.01578 0.01482,-0.02327 0.0052,-0.0082 0.01002,-0.0158 0.01477,-0.02331 0.0052,-0.0082 0.01,-0.01583 0.01473,-0.02334 0.0052,-0.0083 0.01,-0.01585 0.01469,-0.02337 0.0052,-0.0083 0.0099,-0.01587 0.01464,-0.0234 0.0052,-0.0083 0.0099,-0.0159 0.0146,-0.02343 0.0051,-0.0083 0.0099,-0.01592 0.01456,-0.02346 0.0051,-0.0083 0.0099,-0.01595 0.01452,-0.02349 0.0051,-0.0083 0.0098,-0.01597 0.01448,-0.02352 0.0051,-0.0083 0.0098,-0.016 0.01444,-0.02354 0.0051,-0.0084 0.0098,-0.01602 0.01439,-0.02357 0.0051,-0.0084 0.0098,-0.01605 0.01435,-0.0236 0.0043,-0.0072 0.0083,-0.01368 0.01217,-0.02009 0.0071,-0.01181 0.01178,-0.01951 0.01641,-0.02719 0.005,-0.0083 0.0096,-0.016 0.01423,-0.02368 0.005,-0.0083 0.0096,-0.01601 0.01419,-0.0237 0.0049,-0.0083 0.0096,-0.01603 0.01415,-0.02373 0.0049,-0.0083 0.0095,-0.01605 0.01411,-0.02375 0.0049,-0.0083 0.0095,-0.01606 0.01407,-0.02378 0.0049,-0.0083 0.0095,-0.01608 0.01403,-0.0238 0.0049,-0.0083 0.0095,-0.01609 0.01399,-0.02382 0.0049,-0.0083 0.0094,-0.01611 0.01395,-0.02385 0.0049,-0.0083 0.0094,-0.01613 0.01392,-0.02387 0.0048,-0.0083 0.0094,-0.01614 0.01388,-0.02389 0.0048,-0.0084 0.0094,-0.01616 0.01384,-0.02391 0.0048,-0.0084 0.0093,-0.01617 0.0138,-0.02393 0.0048,-0.0084 0.0093,-0.01619 0.01376,-0.02395 0.0048,-0.0084 0.0093,-0.0162 0.01373,-0.02397 0.0048,-0.0084 0.0093,-0.01622 0.01369,-0.02399 0.0048,-0.0084 0.0092,-0.01624 0.01365,-0.02401 0.0048,-0.0084 0.0092,-0.01625 0.01361,-0.02403 0.0047,-0.0084 0.0092,-0.01627 0.01358,-0.02405 0.0047,-0.0084 0.0092,-0.01628 0.01354,-0.02407 0.0047,-0.0084 0.0091,-0.0163 0.0135,-0.02408 0.0047,-0.0084 0.0091,-0.01632 0.01347,-0.0241 0.0047,-0.0084 0.0091,-0.01633 0.01343,-0.02412 0.0047,-0.0085 0.0091,-0.01635 0.0134,-0.02413 0.0047,-0.0085 0.0091,-0.01638 0.01336,-0.02415 0.0047,-0.0085 0.009,-0.0164 0.01333,-0.02416 0.0047,-0.0085 0.009,-0.01642 0.01329,-0.02417 0.0047,-0.0085 0.009,-0.01645 0.01326,-0.02419 0.0047,-0.0086 0.009,-0.01648 0.01322,-0.0242 0.01369,-0.02511 0.02685,-0.04936 0.03957,-0.07289 0.01353,-0.02505 0.0266,-0.04933 0.03915,-0.07278 0.06743,-0.125908 0.131367,-0.248212 0.191391,-0.365011 0.142862,-0.278 0.276599,-0.550282 0.398219,-0.803316 0.124553,-0.25913 0.24506,-0.516246 0.350615,-0.742762 a 0.36903578,0.36903578 90 0 0 -0.669002,-0.311748 z"
       id="path-1-7"
       inkscape:path-effect="#path-effect18;#path-effect19"
       inkscape:original-d="M 11.366302,12.547217 C 10.429475,14.557546 9.3227688,16.812654 7.52833,18.008946"
       style="fill:#000000;fill-rule:nonzero;stroke:none;stroke-width:1px;stroke-linecap:butt;stroke-linejoin:miter;stroke-opacity:1" /><path
       d="m 12.232246,15.602428 c -0.10837,0.177498 -0.218477,0.361663 -0.337749,0.563753 -0.126951,0.215112 -0.246261,0.419865 -0.383803,0.655426 -0.15617,0.267476 -0.325983,0.557755 -0.497229,0.842857 -0.130292,0.216919 -0.268169,0.442178 -0.411961,0.6686 -0.118966,0.187323 -0.24428,0.379079 -0.375652,0.571485 -0.0129,0.01889 -0.02615,0.03823 -0.03975,0.05796 -0.0043,0.0062 -0.0088,0.01278 -0.01344,0.01948 -0.0042,0.006 -0.0087,0.01257 -0.01331,0.01924 -0.0042,0.006 -0.0087,0.01256 -0.01333,0.01921 -0.0042,0.006 -0.0087,0.01255 -0.01335,0.01919 -0.0042,0.006 -0.0088,0.01254 -0.01337,0.01916 -0.0042,0.006 -0.0088,0.01253 -0.0134,0.01913 -0.0042,0.006 -0.0088,0.01252 -0.01342,0.0191 -0.0042,0.006 -0.0088,0.0125 -0.01344,0.01907 -0.0042,0.006 -0.0088,0.01249 -0.01346,0.01904 -0.0042,0.006 -0.0088,0.01247 -0.01348,0.01901 -0.0043,0.006 -0.0089,0.01245 -0.0135,0.01898 -0.0043,0.006 -0.0089,0.01244 -0.01352,0.01895 -0.0043,0.006 -0.0089,0.01242 -0.01355,0.01892 -0.0043,0.0059 -0.0089,0.0124 -0.013569,0.01889 -0.00428,0.0059 -0.00892,0.01238 -0.013591,0.01885 -0.00429,0.0059 -0.00894,0.01236 -0.013614,0.01882 -0.0043,0.0059 -0.00896,0.01234 -0.013637,0.01879 -0.0043,0.0059 -0.00897,0.01232 -0.013659,0.01876 -0.00431,0.0059 -0.00899,0.0123 -0.013682,0.01873 -0.00432,0.0059 -0.009,0.01228 -0.013706,0.01869 -0.00432,0.0059 -0.00902,0.01226 -0.013729,0.01866 -0.00433,0.0059 -0.00904,0.01224 -0.013752,0.01863 -0.00434,0.0059 -0.00905,0.01222 -0.013776,0.01859 -0.00434,0.0058 -0.00907,0.0122 -0.013799,0.01856 -0.00435,0.0058 -0.00908,0.01217 -0.013823,0.01853 -0.00436,0.0058 -0.0091,0.01215 -0.013847,0.01849 -0.00436,0.0058 -0.00912,0.01213 -0.013871,0.01846 -0.00437,0.0058 -0.00913,0.01211 -0.013896,0.01842 -0.00438,0.0058 -0.00915,0.01208 -0.01392,0.01838 -0.00439,0.0058 -0.00917,0.01206 -0.013944,0.01835 -0.00439,0.0058 -0.00918,0.01204 -0.013969,0.01831 -0.0044,0.0057 -0.0092,0.01201 -0.013994,0.01828 -0.00441,0.0057 -0.00922,0.01199 -0.014019,0.01824 -0.00441,0.0057 -0.00923,0.01197 -0.014044,0.01821 -0.00442,0.0057 -0.00925,0.01194 -0.014069,0.01817 -0.00443,0.0057 -0.00927,0.01192 -0.014095,0.01813 -0.00444,0.0057 -0.00929,0.0119 -0.01412,0.01809 -0.00444,0.0057 -0.0093,0.01187 -0.014146,0.01806 -0.00445,0.0057 -0.00932,0.01185 -0.014172,0.01802 -0.00446,0.0056 -0.00934,0.01182 -0.014198,0.01798 -0.00447,0.0056 -0.00936,0.0118 -0.014224,0.01794 -0.00447,0.0056 -0.00937,0.01178 -0.01425,0.0179 -0.00448,0.0056 -0.00939,0.01175 -0.014277,0.01786 -0.00449,0.0056 -0.00941,0.01173 -0.014303,0.01782 -0.0045,0.0056 -0.00943,0.0117 -0.01433,0.01778 -0.00451,0.0056 -0.00945,0.01168 -0.014356,0.01774 -0.00452,0.0056 -0.00947,0.01166 -0.014383,0.0177 -0.00453,0.0055 -0.00949,0.01163 -0.014411,0.01766 -0.00454,0.0055 -0.00951,0.01161 -0.014438,0.01762 -0.00455,0.0055 -0.00953,0.01159 -0.014465,0.01758 -0.00456,0.0055 -0.00956,0.01156 -0.014493,0.01754 -0.00457,0.0055 -0.00958,0.01154 -0.01452,0.0175 -0.00458,0.0055 -0.0096,0.01152 -0.014548,0.01746 -0.0046,0.0055 -0.00963,0.0115 -0.014576,0.01741 -0.00606,0.0072 -0.010324,0.01228 -0.014604,0.01737 -0.00451,0.0053 -0.00956,0.01132 -0.014632,0.01733 -0.00452,0.0053 -0.00958,0.0113 -0.014661,0.01728 -0.00453,0.0053 -0.0096,0.01127 -0.014689,0.01724 -0.00454,0.0053 -0.00962,0.01124 -0.014718,0.0172 -0.00455,0.0053 -0.00964,0.01122 -0.014747,0.01715 -0.00456,0.0053 -0.00966,0.01119 -0.014776,0.01711 -0.00457,0.0053 -0.00968,0.01116 -0.014805,0.01706 -0.00458,0.0052 -0.0097,0.01113 -0.014834,0.01702 -0.00458,0.0052 -0.00972,0.01111 -0.014863,0.01697 -0.00459,0.0052 -0.00975,0.01108 -0.014893,0.01693 -0.0046,0.0052 -0.00977,0.01105 -0.014922,0.01688 -0.00461,0.0052 -0.00979,0.01102 -0.014952,0.01684 -0.00462,0.0052 -0.00981,0.01099 -0.014982,0.01679 -0.00463,0.0052 -0.00983,0.01096 -0.015012,0.01675 -0.00464,0.0052 -0.00985,0.01094 -0.015042,0.0167 -0.00465,0.0051 -0.00987,0.01091 -0.015072,0.01665 -0.00466,0.0051 -0.00989,0.01088 -0.015103,0.01661 -0.00467,0.0051 -0.00992,0.01085 -0.015134,0.01656 -0.00468,0.0051 -0.00994,0.01082 -0.015164,0.01651 -0.00469,0.0051 -0.00996,0.01079 -0.015195,0.01646 -0.0047,0.0051 -0.00999,0.01077 -0.015226,0.01642 -0.00472,0.0051 -0.010011,0.01074 -0.015257,0.01637 -0.00473,0.005 -0.010036,0.01071 -0.015289,0.01632 -0.00474,0.005 -0.010061,0.01068 -0.01532,0.01627 -0.00476,0.005 -0.010088,0.01066 -0.015352,0.01622 -0.00477,0.005 -0.010117,0.01063 -0.015383,0.01617 -0.00479,0.005 -0.010146,0.01061 -0.015415,0.01612 -0.00481,0.005 -0.010178,0.01059 -0.015447,0.01607 -0.00483,0.005 -0.010213,0.01057 -0.015479,0.01602 -0.00485,0.005 -0.010252,0.01056 -0.015512,0.01597 -0.00489,0.005 -0.010296,0.01055 -0.015544,0.01592 -0.00493,0.005 -0.010349,0.01054 -0.015577,0.01587 -0.00498,0.005 -0.010417,0.01056 -0.015609,0.01582 -0.00506,0.0051 -0.010509,0.01059 -0.015642,0.01577 -0.00519,0.0052 -0.010655,0.01068 -0.015675,0.01572 a 0.36903578,0.36903578 90 0 0 0.5226004,0.52119 c 0.00502,-0.005 0.010488,-0.01052 0.016376,-0.01642 0.00583,-0.0059 0.011286,-0.01137 0.017038,-0.01717 0.00589,-0.006 0.011325,-0.01148 0.016993,-0.01722 0.00592,-0.006 0.01134,-0.01155 0.016948,-0.01727 0.00593,-0.0061 0.011341,-0.01162 0.016904,-0.01731 0.00594,-0.0061 0.011334,-0.01167 0.01686,-0.01736 0.00594,-0.0061 0.011321,-0.01172 0.016816,-0.01741 0.00593,-0.0062 0.011305,-0.01176 0.016772,-0.01745 0.00593,-0.0062 0.011287,-0.0118 0.016729,-0.0175 0.00592,-0.0062 0.011266,-0.01184 0.016685,-0.01754 0.00591,-0.0062 0.011244,-0.01188 0.016642,-0.01758 0.0059,-0.0063 0.011221,-0.01192 0.016599,-0.01763 0.00589,-0.0063 0.011198,-0.01195 0.016556,-0.01767 0.00588,-0.0063 0.011173,-0.01198 0.016514,-0.01771 0.00587,-0.0063 0.011148,-0.01202 0.016471,-0.01776 0.00585,-0.0063 0.011123,-0.01205 0.016429,-0.0178 0.00584,-0.0064 0.011098,-0.01208 0.016387,-0.01784 0.00583,-0.0064 0.011072,-0.01211 0.016345,-0.01789 0.00581,-0.0064 0.011046,-0.01215 0.016304,-0.01793 0.0058,-0.0064 0.01102,-0.01218 0.016263,-0.01797 0.00578,-0.0064 0.010994,-0.01221 0.016222,-0.01801 0.00577,-0.0064 0.010968,-0.01224 0.016181,-0.01805 0.00576,-0.0064 0.010942,-0.01226 0.01614,-0.01809 0.00574,-0.0065 0.010916,-0.01229 0.016099,-0.01813 0.00573,-0.0065 0.010891,-0.01232 0.016059,-0.01817 0.00571,-0.0065 0.010865,-0.01235 0.016019,-0.01821 0.0057,-0.0065 0.010839,-0.01238 0.015979,-0.01825 0.00568,-0.0065 0.010814,-0.01241 0.015939,-0.01829 0.00567,-0.0065 0.010788,-0.01243 0.0159,-0.01833 0.00566,-0.0065 0.010763,-0.01246 0.015861,-0.01836 0.00564,-0.0066 0.010738,-0.01249 0.015821,-0.0184 0.00563,-0.0066 0.010714,-0.01252 0.015783,-0.01844 0.00562,-0.0066 0.010689,-0.01254 0.015744,-0.01848 0.0056,-0.0066 0.010665,-0.01257 0.015705,-0.01852 0.00559,-0.0066 0.010641,-0.0126 0.015667,-0.01855 0.00479,-0.0057 0.00906,-0.01077 0.013301,-0.01582 0.00779,-0.0093 0.012815,-0.0153 0.017919,-0.02139 0.0055,-0.0065 0.01047,-0.01256 0.01555,-0.01866 0.0054,-0.0066 0.01045,-0.01259 0.01552,-0.0187 0.0054,-0.0066 0.01043,-0.01262 0.01548,-0.01873 0.0054,-0.0066 0.01041,-0.01265 0.01544,-0.01877 0.0054,-0.0066 0.01039,-0.01267 0.01541,-0.0188 0.0054,-0.0066 0.01036,-0.0127 0.01537,-0.01883 0.0054,-0.0066 0.01034,-0.01273 0.01533,-0.01887 0.0054,-0.0066 0.01032,-0.01275 0.0153,-0.0189 0.0054,-0.0067 0.0103,-0.01278 0.01526,-0.01894 0.0054,-0.0067 0.01027,-0.0128 0.01522,-0.01897 0.0053,-0.0067 0.01025,-0.01283 0.01519,-0.019 0.0053,-0.0067 0.01023,-0.01285 0.01515,-0.01904 0.0053,-0.0067 0.01021,-0.01287 0.01512,-0.01907 0.0053,-0.0067 0.01018,-0.0129 0.01508,-0.0191 0.0053,-0.0067 0.01016,-0.01292 0.01505,-0.01913 0.0053,-0.0067 0.01014,-0.01294 0.01501,-0.01916 0.0053,-0.0067 0.01012,-0.01296 0.01498,-0.01919 0.0053,-0.0068 0.01009,-0.01298 0.01494,-0.01922 0.0052,-0.0068 0.01007,-0.013 0.01491,-0.01925 0.0052,-0.0068 0.01005,-0.01303 0.01488,-0.01928 0.0052,-0.0068 0.01003,-0.01305 0.01484,-0.01931 0.0052,-0.0068 0.01,-0.01307 0.01481,-0.01934 0.0052,-0.0068 0.01,-0.01309 0.01478,-0.01937 0.0052,-0.0068 0.01,-0.01311 0.01474,-0.0194 0.0052,-0.0068 0.0099,-0.01313 0.01471,-0.01943 0.0052,-0.0068 0.0099,-0.01315 0.01468,-0.01946 0.0051,-0.0068 0.0099,-0.01317 0.01464,-0.01949 0.0051,-0.0069 0.0099,-0.01319 0.01461,-0.01951 0.0051,-0.0069 0.0099,-0.01321 0.01458,-0.01954 0.0051,-0.0069 0.0098,-0.01322 0.01455,-0.01957 0.0051,-0.0069 0.0098,-0.01324 0.01452,-0.01959 0.0051,-0.0069 0.0098,-0.01326 0.01449,-0.01962 0.0051,-0.0069 0.0098,-0.01328 0.01446,-0.01965 0.0051,-0.0069 0.0098,-0.0133 0.01442,-0.01967 0.0051,-0.0069 0.0097,-0.01332 0.01439,-0.0197 0.005,-0.0069 0.0097,-0.01334 0.01436,-0.01973 0.005,-0.0069 0.0097,-0.01335 0.01433,-0.01975 0.005,-0.0069 0.0097,-0.01337 0.0143,-0.01977 0.005,-0.0069 0.0097,-0.01339 0.01427,-0.0198 0.005,-0.007 0.0096,-0.01341 0.01424,-0.01982 0.005,-0.007 0.0096,-0.01343 0.01421,-0.01985 0.005,-0.007 0.0096,-0.01344 0.01418,-0.01987 0.005,-0.007 0.0096,-0.01346 0.01415,-0.01989 0.005,-0.007 0.0096,-0.01348 0.01412,-0.01992 0.005,-0.007 0.0095,-0.0135 0.0141,-0.01994 0.0049,-0.007 0.0095,-0.01352 0.01407,-0.01996 0.0049,-0.007 0.0095,-0.01354 0.01404,-0.01998 0.0049,-0.007 0.0095,-0.01356 0.01401,-0.02001 0.0049,-0.0071 0.0095,-0.01358 0.01398,-0.02003 0.0049,-0.0071 0.0095,-0.01361 0.01395,-0.02005 0.0049,-0.0071 0.0095,-0.01363 0.01393,-0.02007 0.0049,-0.0071 0.0094,-0.01365 0.0139,-0.02009 0.0049,-0.0071 0.0094,-0.01368 0.01387,-0.02011 0.01433,-0.0208 0.02815,-0.04096 0.04159,-0.06065 0.136839,-0.200414 0.266696,-0.399162 0.389159,-0.591993 0.148,-0.233046 0.289205,-0.463782 0.421625,-0.684243 0.173879,-0.289486 0.345791,-0.583375 0.501898,-0.850741 0.137992,-0.236332 0.256209,-0.439208 0.382052,-0.652444 0.117995,-0.199926 0.226138,-0.380788 0.332063,-0.55428 a 0.36903578,0.36903578 90 0 0 -0.629942,-0.384608 z"
       id="path-1-5"
       inkscape:path-effect="#path-effect20;#path-effect21"
       inkscape:original-d="m 12.547217,15.794732 c -1.024561,1.678054 -1.996041,3.619798 -3.3951295,5.018886"
       style="fill:#000000;fill-rule:nonzero;stroke:none;stroke-width:1px;stroke-linecap:butt;stroke-linejoin:miter;stroke-opacity:1" /><path
       d="m 26.403585,16.487517 c -0.0553,0.0902 -0.158662,0.260571 -0.291472,0.493714 -0.01771,0.0311 -0.03574,0.06294 -0.0541,0.09558 -0.0652,0.115906 -0.147136,0.264097 -0.244806,0.446831 -0.104941,0.196343 -0.214208,0.406623 -0.333113,0.641263 -0.109972,0.217013 -0.218736,0.436193 -0.330559,0.663477 -0.0536,0.108936 -0.20654,0.421479 -0.260141,0.53042 -0.08424,0.171742 -0.156698,0.318897 -0.228654,0.463506 -0.0058,0.0116 -0.03822,0.0766 -0.04399,0.08821 a 0.36903578,0.36903578 90 0 0 0.660152,0.330076 c -0.0075,0.01503 0.05214,-0.104502 0.04463,-0.08948 0.07287,-0.14644 0.146031,-0.295027 0.230527,-0.467297 0.248166,-0.505987 0.01157,-0.02362 0.259738,-0.529601 0.11117,-0.225956 0.218523,-0.442277 0.326667,-0.655683 0.116851,-0.230588 0.223629,-0.436048 0.325679,-0.626981 0.09493,-0.177604 0.174283,-0.321122 0.237143,-0.432859 0.01771,-0.03148 0.03509,-0.06219 0.05215,-0.09213 0.127739,-0.224243 0.226791,-0.387491 0.279365,-0.473234 a 0.36903578,0.36903578 90 0 0 -0.629212,-0.385802 z"
       id="path-1-9"
       inkscape:path-effect="#path-effect22;#path-effect23"
       inkscape:original-d="m 26.718191,16.680418 c -0.674536,1.100095 -1.231684,2.315754 -1.771372,3.395129"
       style="fill:#000000;fill-rule:nonzero;stroke:none;stroke-width:1px;stroke-linecap:butt;stroke-linejoin:miter;stroke-opacity:1" /><path
       d="m 27.556356,17.872159 c -0.0023,0.0058 -0.0048,0.01195 -0.0074,0.01849 -0.0017,0.0043 -0.0042,0.01042 -0.0068,0.01686 -0.0018,0.0043 -0.0043,0.01046 -0.0069,0.01684 -0.0018,0.0044 -0.0044,0.0105 -0.007,0.01683 -0.0019,0.0044 -0.0044,0.01052 -0.0071,0.01681 -0.0019,0.0044 -0.0045,0.01054 -0.0072,0.0168 -0.0019,0.0044 -0.0046,0.01055 -0.0072,0.01678 -0.002,0.0045 -0.0046,0.01056 -0.0073,0.01677 -0.002,0.0045 -0.0047,0.01057 -0.0074,0.01675 -0.002,0.0045 -0.0047,0.01057 -0.0075,0.01674 -0.002,0.0045 -0.0048,0.01058 -0.0076,0.01673 -0.0021,0.0045 -0.0048,0.01058 -0.0077,0.01671 -0.0021,0.0045 -0.0049,0.01059 -0.0077,0.0167 -0.0021,0.0046 -0.005,0.01059 -0.0078,0.01669 -0.0022,0.0046 -0.005,0.01059 -0.0079,0.01667 -0.0022,0.0046 -0.0051,0.01059 -0.008,0.01666 -0.0022,0.0046 -0.0051,0.01059 -0.0081,0.01665 -0.0022,0.0046 -0.0052,0.01059 -0.0081,0.01664 -0.0023,0.0046 -0.0052,0.01059 -0.0082,0.01662 -0.0023,0.0046 -0.0053,0.01059 -0.0083,0.01661 -0.0023,0.0046 -0.0053,0.01059 -0.0084,0.0166 -0.0024,0.0046 -0.0054,0.01059 -0.0084,0.01659 -0.0024,0.0046 -0.0054,0.01059 -0.0085,0.01658 -0.0024,0.0046 -0.0055,0.01059 -0.0086,0.01656 -0.0024,0.0047 -0.0055,0.01059 -0.0087,0.01656 -0.0025,0.0047 -0.0056,0.01059 -0.0087,0.01654 -0.0025,0.0047 -0.0056,0.01059 -0.0088,0.01653 -0.0025,0.0047 -0.0057,0.01059 -0.0089,0.01652 -0.0025,0.0047 -0.0057,0.01059 -0.009,0.01651 -0.0026,0.0047 -0.0058,0.01059 -0.009,0.0165 -0.0026,0.0047 -0.0058,0.01058 -0.0091,0.01649 -0.0026,0.0047 -0.0059,0.01058 -0.0092,0.01648 -0.0026,0.0047 -0.0059,0.01058 -0.0092,0.01647 -0.0027,0.0047 -0.006,0.01058 -0.0093,0.01646 -0.0027,0.0047 -0.006,0.01058 -0.0094,0.01645 -0.0027,0.0047 -0.0061,0.01058 -0.0094,0.01644 -0.0027,0.0047 -0.0061,0.01058 -0.0095,0.01643 -0.0028,0.0048 -0.0062,0.01058 -0.0096,0.01642 -0.0028,0.0048 -0.0062,0.01058 -0.0097,0.01641 -0.0026,0.0044 -0.0059,0.0099 -0.0092,0.01545 -0.0034,0.0056 -0.0068,0.01145 -0.01035,0.01734 -0.0028,0.0047 -0.0063,0.0105 -0.0098,0.01638 -0.0029,0.0047 -0.0064,0.0105 -0.0099,0.01637 -0.0029,0.0047 -0.0064,0.01051 -0.01,0.01636 -0.0029,0.0047 -0.0065,0.01051 -0.01004,0.01635 -0.0029,0.0047 -0.0065,0.01052 -0.01011,0.01635 -0.003,0.0048 -0.0065,0.01052 -0.01017,0.01634 -0.003,0.0048 -0.0066,0.01052 -0.01023,0.01633 -0.003,0.0048 -0.0066,0.01052 -0.01029,0.01632 -0.003,0.0048 -0.0067,0.01052 -0.01035,0.01631 -0.0031,0.0048 -0.0067,0.01053 -0.01041,0.0163 -0.0031,0.0048 -0.0068,0.01053 -0.01047,0.01629 -0.0031,0.0048 -0.0068,0.01053 -0.01053,0.01629 -0.0031,0.0048 -0.0069,0.01053 -0.01059,0.01628 -0.0032,0.0048 -0.0069,0.01053 -0.01065,0.01627 -0.0032,0.0048 -0.0069,0.01053 -0.01071,0.01626 -0.0032,0.0048 -0.007,0.01053 -0.01076,0.01626 -0.0032,0.0048 -0.007,0.01053 -0.01082,0.01625 -0.0033,0.0049 -0.0071,0.01053 -0.01088,0.01624 -0.0033,0.0049 -0.0071,0.01053 -0.01093,0.01623 -0.0033,0.0049 -0.0071,0.01053 -0.01099,0.01623 -0.0033,0.0049 -0.0072,0.01054 -0.01104,0.01622 -0.0033,0.0049 -0.0072,0.01054 -0.01109,0.01621 -0.0034,0.0049 -0.0072,0.01054 -0.01115,0.01621 -0.0034,0.0049 -0.0073,0.01054 -0.0112,0.0162 -0.0034,0.0049 -0.0073,0.01054 -0.01125,0.01619 -0.0034,0.0049 -0.0074,0.01054 -0.0113,0.01619 -0.0035,0.0049 -0.0074,0.01054 -0.01135,0.01618 -0.0035,0.0049 -0.0074,0.01054 -0.0114,0.01618 -0.0035,0.0049 -0.0075,0.01054 -0.01145,0.01617 -0.0035,0.0049 -0.0075,0.01054 -0.0115,0.01616 -0.0035,0.0049 -0.0075,0.01054 -0.01155,0.01616 -0.0036,0.0049 -0.0076,0.01054 -0.0116,0.01615 -0.0036,0.005 -0.0076,0.01054 -0.01164,0.01615 -0.0036,0.005 -0.0076,0.01054 -0.01169,0.01614 -0.0036,0.005 -0.0077,0.01054 -0.01173,0.01614 -0.0036,0.005 -0.0077,0.01055 -0.01178,0.01613 -0.0037,0.005 -0.0077,0.01055 -0.01182,0.01613 -0.0037,0.005 -0.0078,0.01055 -0.01187,0.01612 -0.0037,0.005 -0.0078,0.01055 -0.01191,0.01612 -0.0037,0.005 -0.0078,0.01055 -0.01195,0.01611 -0.0037,0.005 -0.0079,0.01055 -0.01199,0.01611 -0.0037,0.005 -0.0079,0.01055 -0.01204,0.0161 -0.0038,0.005 -0.0079,0.01055 -0.01208,0.0161 -0.0038,0.005 -0.0079,0.01056 -0.01212,0.0161 -0.0038,0.005 -0.008,0.01056 -0.01215,0.01609 -0.0038,0.005 -0.008,0.01056 -0.0122,0.01609 -0.0038,0.005 -0.008,0.01056 -0.01223,0.01609 -0.0038,0.005 -0.0081,0.01056 -0.01227,0.01608 -0.0039,0.0051 -0.0081,0.01056 -0.01231,0.01608 -0.0039,0.0051 -0.0081,0.01056 -0.01234,0.01608 -0.0039,0.0051 -0.0081,0.01056 -0.01238,0.01607 -0.0039,0.0051 -0.0082,0.01057 -0.01241,0.01607 -0.0039,0.0051 -0.0082,0.01057 -0.01245,0.01607 -0.0039,0.0051 -0.0082,0.01057 -0.01248,0.01606 -0.10437,0.134136 -0.211693,0.267383 -0.32106,0.401155 -0.14847,0.181601 -0.300189,0.363471 -0.451961,0.54823 -0.101521,0.123592 -0.203372,0.248858 -0.303948,0.376044 -0.02169,0.02743 -0.04334,0.05498 -0.06494,0.08264 -0.0044,0.0056 -0.0086,0.01098 -0.01276,0.01638 -0.0045,0.0058 -0.0087,0.01119 -0.01289,0.01658 -0.0045,0.0058 -0.0087,0.0112 -0.01287,0.0166 -0.0045,0.0058 -0.0087,0.01122 -0.01284,0.01662 -0.0045,0.0058 -0.0087,0.01123 -0.01281,0.01663 -0.0045,0.0058 -0.0086,0.01125 -0.01279,0.01665 -0.0045,0.0059 -0.0086,0.01126 -0.01276,0.01667 -0.0045,0.0059 -0.0086,0.01128 -0.01273,0.01668 -0.0045,0.0059 -0.0086,0.01129 -0.0127,0.0167 -0.0045,0.0059 -0.0086,0.01131 -0.01267,0.01672 -0.0045,0.0059 -0.0086,0.01132 -0.01264,0.01674 -0.0045,0.0059 -0.0085,0.01134 -0.01261,0.01675 -0.0045,0.0059 -0.0085,0.01136 -0.01258,0.01677 -0.0044,0.006 -0.0085,0.01137 -0.01255,0.01679 -0.0044,0.006 -0.0085,0.01139 -0.01251,0.01681 -0.0044,0.006 -0.0085,0.01141 -0.01248,0.01683 -0.0044,0.006 -0.0084,0.01143 -0.01244,0.01685 -0.0044,0.006 -0.0084,0.01144 -0.01241,0.01687 -0.0044,0.006 -0.0084,0.01146 -0.01237,0.01689 -0.0044,0.006 -0.0084,0.01148 -0.01234,0.01691 -0.0044,0.0061 -0.0084,0.0115 -0.0123,0.01693 -0.0044,0.0061 -0.0083,0.01152 -0.01226,0.01695 -0.0044,0.0061 -0.0083,0.01153 -0.01222,0.01698 -0.0044,0.0061 -0.0083,0.01155 -0.01218,0.017 -0.0044,0.0061 -0.0083,0.01157 -0.01215,0.01702 -0.0044,0.0061 -0.0082,0.01159 -0.0121,0.01704 -0.0043,0.0061 -0.0082,0.01161 -0.01206,0.01706 -0.0043,0.0062 -0.0082,0.01163 -0.01202,0.01709 -0.0043,0.0062 -0.0082,0.01165 -0.01198,0.01711 -0.0043,0.0062 -0.0081,0.01167 -0.01193,0.01713 -0.0043,0.0062 -0.0081,0.01169 -0.01189,0.01716 -0.0043,0.0062 -0.0081,0.01171 -0.01185,0.01718 -0.0043,0.0062 -0.008,0.01173 -0.0118,0.01721 -0.0043,0.0063 -0.008,0.01176 -0.01175,0.01723 -0.0043,0.0063 -0.008,0.01178 -0.01171,0.01726 -0.0043,0.0063 -0.008,0.0118 -0.01166,0.01728 -0.0042,0.0063 -0.0079,0.01182 -0.01161,0.01731 -0.0042,0.0063 -0.0079,0.01185 -0.01156,0.01733 -0.0042,0.0064 -0.0079,0.01187 -0.01151,0.01736 -0.0042,0.0064 -0.0078,0.01189 -0.01146,0.01739 -0.0042,0.0064 -0.0078,0.01192 -0.01141,0.01741 -0.0042,0.0064 -0.0078,0.01194 -0.01136,0.01744 -0.0042,0.0064 -0.0077,0.01196 -0.0113,0.01747 -0.0042,0.0065 -0.0077,0.01199 -0.01125,0.0175 -0.0041,0.0065 -0.0077,0.01201 -0.0112,0.01752 -0.0041,0.0065 -0.0076,0.01204 -0.01114,0.01755 -0.0041,0.0065 -0.0076,0.01206 -0.01109,0.01758 -0.0041,0.0065 -0.0076,0.01209 -0.01103,0.01761 -0.0041,0.0066 -0.0075,0.01211 -0.01097,0.01764 -0.0041,0.0066 -0.0075,0.01214 -0.01091,0.01767 -0.004,0.0066 -0.0075,0.01216 -0.01086,0.0177 -0.004,0.0066 -0.0074,0.01219 -0.0108,0.01773 -0.004,0.0066 -0.0074,0.01222 -0.01074,0.01776 -0.004,0.0067 -0.0073,0.01225 -0.01067,0.01779 -0.004,0.0067 -0.0073,0.01228 -0.01061,0.01782 -0.004,0.0067 -0.0073,0.0123 -0.01055,0.01786 -0.0039,0.0067 -0.0072,0.01233 -0.01049,0.01789 -0.0039,0.0068 -0.0072,0.01236 -0.01042,0.01792 -0.0039,0.0068 -0.0071,0.01239 -0.01036,0.01795 -0.0039,0.0068 -0.0071,0.01242 -0.01029,0.01798 -0.0039,0.0068 -0.0071,0.01245 -0.01023,0.01802 -0.0039,0.0069 -0.007,0.01248 -0.01016,0.01805 -0.0038,0.0069 -0.007,0.01251 -0.01009,0.01808 -0.0038,0.0069 -0.0069,0.01255 -0.01002,0.01812 -0.0038,0.0069 -0.0069,0.01258 -0.01,0.01815 -0.0038,0.007 -0.0069,0.01262 -0.0099,0.01819 -0.0038,0.007 -0.0068,0.01265 -0.0098,0.01822 -0.0037,0.007 -0.0068,0.01269 -0.0097,0.01826 -0.0037,0.0071 -0.0067,0.01273 -0.0097,0.01829 -0.0037,0.0071 -0.0067,0.01277 -0.0096,0.01833 -0.0037,0.0071 -0.0066,0.01281 -0.0095,0.01836 -0.0037,0.0072 -0.0066,0.01286 -0.0094,0.0184 -0.0037,0.0072 -0.0066,0.01291 -0.0094,0.01844 -0.0037,0.0073 -0.0065,0.01297 -0.0093,0.01848 a 0.36903578,0.36903578 90 0 0 0.659464,0.331448 c 0.0028,-0.0055 0.0056,-0.01121 0.0086,-0.01712 0.0021,-0.0042 0.005,-0.0099 0.008,-0.01573 0.0022,-0.0042 0.0051,-0.0099 0.0081,-0.01573 0.0022,-0.0042 0.0051,-0.0099 0.0082,-0.01573 0.0022,-0.0043 0.0052,-0.0099 0.0082,-0.01573 0.0023,-0.0043 0.0053,-0.0099 0.0083,-0.01572 0.0023,-0.0043 0.0053,-0.01 0.0084,-0.01572 0.0023,-0.0043 0.0054,-0.01 0.0085,-0.01572 0.0024,-0.0043 0.0054,-0.01 0.0085,-0.01572 0.0024,-0.0043 0.0055,-0.01 0.0086,-0.01571 0.0024,-0.0044 0.0055,-0.01 0.0087,-0.01571 0.0024,-0.0044 0.0056,-0.01001 0.0088,-0.01571 0.0025,-0.0044 0.0056,-0.01002 0.0088,-0.01571 0.0025,-0.0044 0.0057,-0.01003 0.0089,-0.01571 0.0025,-0.0044 0.0057,-0.01003 0.009,-0.0157 0.0026,-0.0044 0.0058,-0.01004 0.0091,-0.0157 0.0026,-0.0044 0.0058,-0.01005 0.0091,-0.0157 0.0026,-0.0045 0.0059,-0.01006 0.0092,-0.0157 0.0026,-0.0045 0.0059,-0.01006 0.0093,-0.0157 0.0027,-0.0045 0.006,-0.01007 0.0093,-0.0157 0.0027,-0.0045 0.006,-0.01008 0.0094,-0.0157 0.0027,-0.0045 0.0061,-0.01008 0.0095,-0.0157 0.0027,-0.0045 0.0061,-0.01009 0.0096,-0.0157 0.0028,-0.0045 0.0062,-0.01009 0.0096,-0.01569 0.0028,-0.0045 0.0062,-0.0101 0.0097,-0.01569 0.0028,-0.0045 0.0063,-0.0101 0.0098,-0.01569 0.0029,-0.0046 0.0063,-0.01011 0.0098,-0.01569 0.0029,-0.0046 0.0064,-0.01012 0.0099,-0.01569 0.0029,-0.0046 0.0064,-0.01012 0.01,-0.01569 0.0029,-0.0046 0.0065,-0.01013 0.01002,-0.01569 0.003,-0.0046 0.0065,-0.01013 0.01009,-0.01569 0.003,-0.0046 0.0066,-0.01014 0.01015,-0.01569 0.003,-0.0046 0.0066,-0.01014 0.01022,-0.01569 0.003,-0.0046 0.0067,-0.01015 0.01028,-0.01569 0.0031,-0.0046 0.0067,-0.01016 0.01034,-0.01569 0.0031,-0.0046 0.0067,-0.01016 0.0104,-0.01569 0.0031,-0.0047 0.0068,-0.01017 0.01046,-0.01569 0.0031,-0.0047 0.0068,-0.01017 0.01053,-0.01569 0.0032,-0.0047 0.0069,-0.01018 0.01058,-0.01569 0.0032,-0.0047 0.0069,-0.01018 0.01065,-0.01569 0.0032,-0.0047 0.0069,-0.01019 0.0107,-0.01569 0.0032,-0.0047 0.007,-0.01019 0.01076,-0.01569 0.0033,-0.0047 0.007,-0.0102 0.01082,-0.0157 0.0033,-0.0047 0.0071,-0.01021 0.01088,-0.0157 0.0033,-0.0047 0.0071,-0.01021 0.01093,-0.0157 0.0033,-0.0047 0.0072,-0.01022 0.01099,-0.0157 0.0033,-0.0048 0.0072,-0.01022 0.01104,-0.0157 0.0034,-0.0048 0.0072,-0.01023 0.0111,-0.0157 0.0034,-0.0048 0.0073,-0.01023 0.01115,-0.0157 0.0034,-0.0048 0.0073,-0.01024 0.01121,-0.0157 0.0034,-0.0048 0.0073,-0.01024 0.01126,-0.01571 0.0035,-0.0048 0.0074,-0.01025 0.01131,-0.01571 0.0035,-0.0048 0.0074,-0.01026 0.01136,-0.01571 0.0035,-0.0048 0.0075,-0.01026 0.01141,-0.01571 0.0035,-0.0048 0.0075,-0.01027 0.01146,-0.01571 0.0035,-0.0048 0.0075,-0.01027 0.01151,-0.01572 0.0036,-0.0048 0.0076,-0.01028 0.01156,-0.01572 0.0036,-0.0049 0.0076,-0.01029 0.01161,-0.01572 0.0036,-0.0049 0.0076,-0.01029 0.01166,-0.01572 0.0036,-0.0049 0.0077,-0.0103 0.01171,-0.01573 0.0036,-0.0049 0.0077,-0.0103 0.01175,-0.01573 0.0037,-0.0049 0.0077,-0.01031 0.0118,-0.01573 0.0037,-0.0049 0.0078,-0.01032 0.01184,-0.01574 0.0037,-0.0049 0.0078,-0.01032 0.01189,-0.01574 0.0037,-0.0049 0.0078,-0.01033 0.01193,-0.01574 0.0037,-0.0049 0.0079,-0.01033 0.01197,-0.01575 0.0038,-0.0049 0.0079,-0.01034 0.01202,-0.01575 0.0038,-0.0049 0.0079,-0.01035 0.01206,-0.01575 0.0038,-0.005 0.008,-0.01035 0.0121,-0.01576 0.0038,-0.005 0.008,-0.01036 0.01214,-0.01576 0.0038,-0.005 0.008,-0.01037 0.01218,-0.01576 0.0039,-0.005 0.008,-0.01037 0.01222,-0.01577 0.0039,-0.005 0.0081,-0.01038 0.01226,-0.01577 0.0039,-0.005 0.0081,-0.01039 0.0123,-0.01578 0.02043,-0.02617 0.04112,-0.05249 0.06191,-0.07879 0.09659,-0.122151 0.195251,-0.243515 0.295335,-0.365358 0.149399,-0.181871 0.301491,-0.364182 0.453044,-0.549552 0.111469,-0.136343 0.222835,-0.274567 0.33232,-0.415278 0.0044,-0.0057 0.0087,-0.01119 0.01296,-0.01667 0.0046,-0.0059 0.0088,-0.0114 0.01308,-0.01689 0.0046,-0.0059 0.0088,-0.01141 0.01306,-0.01691 0.0046,-0.0059 0.0088,-0.01143 0.01304,-0.01693 0.0046,-0.0059 0.0088,-0.01145 0.01302,-0.01695 0.0046,-0.006 0.0088,-0.01147 0.01299,-0.01697 0.0046,-0.006 0.0088,-0.01149 0.01297,-0.017 0.0046,-0.006 0.0088,-0.01151 0.01294,-0.01702 0.0046,-0.006 0.0087,-0.01153 0.01292,-0.01704 0.0045,-0.006 0.0087,-0.01155 0.01289,-0.01707 0.0045,-0.006 0.0087,-0.01157 0.01287,-0.01709 0.0045,-0.0061 0.0087,-0.01159 0.01284,-0.01712 0.0045,-0.0061 0.0087,-0.01161 0.01281,-0.01714 0.0045,-0.0061 0.0087,-0.01163 0.01278,-0.01717 0.0045,-0.0061 0.0086,-0.01165 0.01275,-0.01719 0.0045,-0.0061 0.0086,-0.01167 0.01272,-0.01722 0.0045,-0.0061 0.0086,-0.01169 0.01269,-0.01724 0.0045,-0.0061 0.0086,-0.01171 0.01266,-0.01727 0.0045,-0.0062 0.0086,-0.01174 0.01263,-0.0173 0.0045,-0.0062 0.0086,-0.01176 0.0126,-0.01732 0.0045,-0.0062 0.0085,-0.01178 0.01256,-0.01735 0.0045,-0.0062 0.0085,-0.0118 0.01253,-0.01738 0.0045,-0.0062 0.0085,-0.01182 0.01249,-0.0174 0.0045,-0.0062 0.0085,-0.01185 0.01246,-0.01743 0.0045,-0.0063 0.0084,-0.01187 0.01242,-0.01746 0.0044,-0.0063 0.0084,-0.01189 0.01238,-0.01749 0.0044,-0.0063 0.0084,-0.01192 0.01235,-0.01751 0.0044,-0.0063 0.0084,-0.01194 0.01231,-0.01754 0.0044,-0.0063 0.0084,-0.01197 0.01227,-0.01757 0.0044,-0.0064 0.0083,-0.01199 0.01223,-0.0176 0.0044,-0.0064 0.0083,-0.01202 0.01219,-0.01763 0.0044,-0.0064 0.0083,-0.01204 0.01215,-0.01766 0.0044,-0.0064 0.0083,-0.01206 0.0121,-0.01769 0.0044,-0.0064 0.0082,-0.01209 0.01206,-0.01772 0.0044,-0.0064 0.0082,-0.01211 0.01202,-0.01775 0.0044,-0.0065 0.0082,-0.01214 0.01198,-0.01778 0.0043,-0.0065 0.0081,-0.01217 0.01193,-0.01782 0.0043,-0.0065 0.0081,-0.01219 0.01188,-0.01785 0.0043,-0.0065 0.0081,-0.01222 0.01184,-0.01788 0.0043,-0.0065 0.0081,-0.01225 0.01179,-0.01791 0.0043,-0.0066 0.008,-0.01228 0.01175,-0.01794 0.0043,-0.0066 0.008,-0.0123 0.0117,-0.01798 0.0043,-0.0066 0.008,-0.01233 0.01165,-0.01801 0.0043,-0.0066 0.0079,-0.01236 0.0116,-0.01804 0.0043,-0.0067 0.0079,-0.01239 0.01155,-0.01808 0.0042,-0.0067 0.0079,-0.01242 0.0115,-0.01811 0.0042,-0.0067 0.0079,-0.01245 0.01144,-0.01814 0.0042,-0.0067 0.0078,-0.01248 0.01139,-0.01818 0.0042,-0.0067 0.0078,-0.01251 0.01134,-0.01821 0.0042,-0.0068 0.0078,-0.01254 0.01128,-0.01825 0.0042,-0.0068 0.0077,-0.01257 0.01123,-0.01828 0.0042,-0.0068 0.0077,-0.01261 0.01117,-0.01832 0.0041,-0.0069 0.0077,-0.01264 0.01111,-0.01835 0.0041,-0.0069 0.0076,-0.01268 0.01106,-0.01839 0.0041,-0.0069 0.0076,-0.01271 0.011,-0.01843 0.0044,-0.0075 0.0077,-0.01297 0.01094,-0.01846 0.004,-0.0069 0.0075,-0.01269 0.01088,-0.0185 0.004,-0.0069 0.0074,-0.01272 0.01082,-0.01854 0.004,-0.0069 0.0074,-0.01275 0.01076,-0.01857 0.004,-0.0069 0.0073,-0.01278 0.0107,-0.01861 0.004,-0.007 0.0073,-0.01281 0.01064,-0.01865 0.004,-0.007 0.0073,-0.01284 0.01057,-0.01869 0.0039,-0.007 0.0072,-0.01288 0.01051,-0.01873 0.0039,-0.007 0.0072,-0.01291 0.01044,-0.01876 0.0039,-0.0071 0.0071,-0.01294 0.01038,-0.01881 0.0039,-0.0071 0.0071,-0.01297 0.01031,-0.01884 0.0039,-0.0071 0.0071,-0.013 0.01024,-0.01888 0.0038,-0.0071 0.007,-0.01304 0.01017,-0.01892 0.0038,-0.0072 0.007,-0.01307 0.01011,-0.01897 0.0038,-0.0072 0.0069,-0.0131 0.01003,-0.019 0.0038,-0.0072 0.0069,-0.01314 0.01,-0.01904 0.0037,-0.0072 0.0068,-0.01317 0.0099,-0.01909 0.0037,-0.0073 0.0068,-0.01321 0.0098,-0.01913 0.0037,-0.0073 0.0067,-0.01324 0.0097,-0.01917 0.0037,-0.0073 0.0067,-0.01328 0.0097,-0.01921 0.0037,-0.0073 0.0066,-0.01332 0.0096,-0.01925 0.0036,-0.0074 0.0066,-0.01335 0.0095,-0.01929 0.0036,-0.0074 0.0065,-0.01339 0.0094,-0.01934 0.0036,-0.0074 0.0065,-0.01342 0.0094,-0.01938 0.0036,-0.0074 0.0064,-0.01346 0.0093,-0.01942 0.0035,-0.0075 0.0064,-0.0135 0.0092,-0.01947 0.0035,-0.0075 0.0063,-0.01354 0.0091,-0.01951 0.0035,-0.0075 0.0063,-0.01358 0.0091,-0.01955 0.0035,-0.0076 0.0062,-0.01362 0.009,-0.0196 0.0034,-0.0076 0.0062,-0.01366 0.0089,-0.01964 0.0034,-0.0076 0.0061,-0.01371 0.0088,-0.01969 0.0034,-0.0077 0.0061,-0.01375 0.0087,-0.01973 0.0034,-0.0077 0.006,-0.0138 0.0086,-0.01978 0.0033,-0.0077 0.006,-0.01385 0.0086,-0.01982 0.0033,-0.0078 0.0059,-0.0139 0.0085,-0.01987 0.0033,-0.0078 0.0059,-0.01396 0.0084,-0.01991 0.0033,-0.0079 0.0058,-0.01402 0.0083,-0.01996 0.0033,-0.008 0.0058,-0.0141 0.0082,-0.02 0.0033,-0.008 0.0057,-0.01419 0.0081,-0.02005 0.0033,-0.0081 0.0057,-0.01431 0.008,-0.0201 a 0.36903578,0.36903578 90 0 0 -0.685498,-0.273574 z"
       id="path-1-2"
       inkscape:path-effect="#path-effect24;#path-effect25"
       inkscape:original-d="m 27.899105,18.008946 c -0.625992,1.579339 -2.221628,2.8195 -2.952286,4.280815"
       style="fill:#000000;fill-rule:nonzero;stroke:none;stroke-width:1px;stroke-linecap:butt;stroke-linejoin:miter;stroke-opacity:1"
       transform="translate(1.3285288,-1.3285288)" /></g></svg>
